<svg width="583" height="239" viewBox="0 0 583 239" fill="none" xmlns="http://www.w3.org/2000/svg">
<circle cx="108.5" cy="173.598" r="21.7" fill="white"/>
<circle cx="108.5" cy="108.501" r="21.7" fill="white"/>
<circle cx="108.5" cy="43.3992" r="21.7" fill="white"/>
<circle cx="43.4002" cy="43.3992" r="21.7" fill="white"/>
<circle cx="173.6" cy="43.3992" r="21.7" fill="white"/>
<circle cx="141.05" cy="206.151" r="10.85" fill="white"/>
<circle cx="141.05" cy="141.049" r="10.85" fill="white"/>
<circle cx="141.05" cy="75.9516" r="10.85" fill="white"/>
<circle cx="206.15" cy="75.9516" r="10.85" fill="white"/>
<circle cx="206.15" cy="10.85" r="10.85" fill="white"/>
<circle cx="141.05" cy="10.85" r="10.85" fill="white"/>
<circle cx="75.9501" cy="75.9516" r="10.85" fill="white"/>
<circle cx="10.85" cy="75.9516" r="10.85" fill="white"/>
<circle cx="75.9501" cy="10.85" r="10.85" fill="white"/>
<circle cx="10.85" cy="10.85" r="10.85" fill="white"/>
<circle cx="75.9501" cy="141.049" r="10.85" fill="white"/>
<circle cx="75.9501" cy="206.151" r="10.85" fill="white"/>
<path d="M307.72 177H288.392V101.736H263.56V85.608H332.552V101.736H307.72V177ZM393.581 177L386.925 155.24H353.645L346.989 177H326.125L358.381 85.224H382.061L414.445 177H393.581ZM375.661 117.736C375.234 116.285 374.68 114.451 373.997 112.232C373.314 110.013 372.632 107.752 371.949 105.448C371.266 103.144 370.712 101.139 370.285 99.432C369.858 101.139 369.261 103.272 368.493 105.832C367.81 108.307 367.128 110.696 366.445 113C365.848 115.219 365.378 116.797 365.037 117.736L358.509 138.984H382.317L375.661 117.736ZM454.436 139.368L435.364 177H414.5L444.836 121.192V85.608H464.036V120.552L494.372 177H473.38L454.436 139.368ZM561.831 177L555.175 155.24H521.895L515.239 177H494.375L526.631 85.224H550.311L582.695 177H561.831ZM543.911 117.736C543.484 116.285 542.93 114.451 542.247 112.232C541.564 110.013 540.882 107.752 540.199 105.448C539.516 103.144 538.962 101.139 538.535 99.432C538.108 101.139 537.511 103.272 536.743 105.832C536.06 108.307 535.378 110.696 534.695 113C534.098 115.219 533.628 116.797 533.287 117.736L526.759 138.984H550.567L543.911 117.736Z" fill="white"/>
</svg>
