<svg width="400" height="400" viewBox="0 0 400 400" fill="none" xmlns="http://www.w3.org/2000/svg">
<path d="M200 360C222.091 360 240 342.091 240 320C240 297.909 222.091 280 200 280C177.909 280 160 297.909 160 320C160 342.091 177.909 360 200 360Z" fill="white"/>
<path d="M200 240C222.091 240 240 222.091 240 200C240 177.909 222.091 160 200 160C177.909 160 160 177.909 160 200C160 222.091 177.909 240 200 240Z" fill="white"/>
<path d="M200 120C222.091 120 240 102.091 240 80C240 57.9086 222.091 40 200 40C177.909 40 160 57.9086 160 80C160 102.091 177.909 120 200 120Z" fill="white"/>
<path d="M80 120C102.091 120 120 102.091 120 80C120 57.9086 102.091 40 80 40C57.9086 40 40 57.9086 40 80C40 102.091 57.9086 120 80 120Z" fill="white"/>
<path d="M320 120C342.091 120 360 102.091 360 80C360 57.9086 342.091 40 320 40C297.909 40 280 57.9086 280 80C280 102.091 297.909 120 320 120Z" fill="white"/>
<path d="M260 400C271.046 400 280 391.046 280 380C280 368.954 271.046 360 260 360C248.954 360 240 368.954 240 380C240 391.046 248.954 400 260 400Z" fill="white"/>
<path d="M260 280C271.046 280 280 271.046 280 260C280 248.954 271.046 240 260 240C248.954 240 240 248.954 240 260C240 271.046 248.954 280 260 280Z" fill="white"/>
<path d="M260 160C271.046 160 280 151.046 280 140C280 128.954 271.046 120 260 120C248.954 120 240 128.954 240 140C240 151.046 248.954 160 260 160Z" fill="white"/>
<path d="M380 160C391.046 160 400 151.046 400 140C400 128.954 391.046 120 380 120C368.954 120 360 128.954 360 140C360 151.046 368.954 160 380 160Z" fill="white"/>
<path d="M380 40C391.046 40 400 31.0457 400 20C400 8.9543 391.046 0 380 0C368.954 0 360 8.9543 360 20C360 31.0457 368.954 40 380 40Z" fill="white"/>
<path d="M260 40C271.046 40 280 31.0457 280 20C280 8.9543 271.046 0 260 0C248.954 0 240 8.9543 240 20C240 31.0457 248.954 40 260 40Z" fill="white"/>
<path d="M140 160C151.046 160 160 151.046 160 140C160 128.954 151.046 120 140 120C128.954 120 120 128.954 120 140C120 151.046 128.954 160 140 160Z" fill="white"/>
<path d="M20 160C31.0457 160 40 151.046 40 140C40 128.954 31.0457 120 20 120C8.9543 120 0 128.954 0 140C0 151.046 8.9543 160 20 160Z" fill="white"/>
<path d="M140 40C151.046 40 160 31.0457 160 20C160 8.9543 151.046 0 140 0C128.954 0 120 8.9543 120 20C120 31.0457 128.954 40 140 40Z" fill="white"/>
<path d="M20 40C31.0457 40 40 31.0457 40 20C40 8.9543 31.0457 0 20 0C8.9543 0 0 8.9543 0 20C0 31.0457 8.9543 40 20 40Z" fill="white"/>
<path d="M140 280C151.046 280 160 271.046 160 260C160 248.954 151.046 240 140 240C128.954 240 120 248.954 120 260C120 271.046 128.954 280 140 280Z" fill="white"/>
<path d="M140 400C151.046 400 160 391.046 160 380C160 368.954 151.046 360 140 360C128.954 360 120 368.954 120 380C120 391.046 128.954 400 140 400Z" fill="white"/>
</svg>
