<svg width="2603" height="278" viewBox="0 0 2603 278" fill="none" xmlns="http://www.w3.org/2000/svg">
<g clip-path="url(#clip0_1509_1368)">
<path d="M1759.79 126.232L1731.26 206.304C1731.13 206.691 1730.87 207.023 1730.53 207.248C1730.18 207.473 1729.77 207.577 1729.36 207.545H1727.2C1726.79 207.561 1726.38 207.451 1726.04 207.228C1725.69 207.006 1725.43 206.683 1725.27 206.304L1703.88 150.146L1682.52 206.304C1682.38 206.684 1682.12 207.008 1681.78 207.232C1681.44 207.455 1681.04 207.564 1680.63 207.545H1678.43C1678.02 207.568 1677.62 207.459 1677.28 207.236C1676.94 207.012 1676.68 206.686 1676.54 206.304L1648 126.26C1647.56 125.019 1648.04 124.248 1649.25 124.248H1658.08C1658.5 124.206 1658.92 124.306 1659.27 124.532C1659.62 124.757 1659.88 125.095 1660.01 125.489L1680.35 186.112L1701.03 130.593C1701.18 130.21 1701.45 129.884 1701.79 129.661C1702.14 129.439 1702.55 129.33 1702.96 129.352H1704.82C1705.23 129.331 1705.63 129.44 1705.97 129.664C1706.31 129.887 1706.57 130.212 1706.71 130.593L1728.01 186.112L1747.87 125.489C1748 125.095 1748.27 124.757 1748.62 124.532C1748.97 124.306 1749.39 124.206 1749.8 124.248H1758.5C1759.75 124.248 1760.22 125.019 1759.79 126.232" fill="white"/>
<path d="M1883.98 165.232C1883.91 173.479 1881.37 181.518 1876.69 188.337C1872.02 195.156 1865.41 200.449 1857.71 203.551C1850.01 206.652 1841.56 207.423 1833.42 205.766C1825.28 204.109 1817.81 200.098 1811.96 194.238C1806.12 188.379 1802.14 180.933 1800.55 172.838C1798.96 164.744 1799.82 156.363 1803.02 148.751C1806.21 141.139 1811.61 134.636 1818.53 130.062C1825.44 125.488 1833.57 123.047 1841.88 123.047C1847.46 122.969 1853.01 124.01 1858.18 126.108C1863.35 128.205 1868.04 131.316 1871.97 135.254C1875.9 139.193 1878.99 143.878 1881.06 149.028C1883.12 154.179 1884.12 159.69 1883.98 165.232ZM1872.31 165.232C1872.31 145.819 1859.55 132.449 1841.88 132.449C1824.21 132.449 1811.45 145.819 1811.45 165.232C1811.45 184.645 1824.21 198.016 1841.88 198.016C1859.55 198.016 1872.31 184.645 1872.31 165.232Z" fill="white"/>
<path d="M1995.49 202.885C1995.75 203.194 1995.92 203.577 1995.97 203.983C1996.01 204.389 1995.93 204.799 1995.74 205.159C1995.54 205.519 1995.24 205.813 1994.88 206C1994.51 206.187 1994.1 206.26 1993.69 206.209H1985.74C1985.48 206.201 1985.22 206.13 1985 206.002C1984.77 205.873 1984.59 205.691 1984.45 205.472L1964.48 175.577H1943.03V204.534C1943.02 204.978 1942.84 205.402 1942.52 205.716C1942.21 206.031 1941.78 206.21 1941.33 206.215H1933.56C1933.11 206.208 1932.69 206.029 1932.37 205.715C1932.06 205.401 1931.88 204.977 1931.87 204.534V125.933C1931.88 125.49 1932.06 125.067 1932.37 124.753C1932.69 124.439 1933.11 124.259 1933.56 124.25H1964.12C1985.52 124.25 1996.08 135.404 1996.08 149.91C1996.21 155.674 1994.26 161.294 1990.58 165.754C1986.89 170.215 1981.73 173.222 1976.01 174.231L1995.49 202.885ZM1961.94 166.175C1978.76 166.175 1984.41 159.255 1984.41 149.917C1984.41 140.579 1978.76 133.659 1961.94 133.659H1943.02V166.175H1961.94Z" fill="white"/>
<path d="M2126.93 122.932H2129.47C2129.69 122.918 2129.92 122.951 2130.13 123.031C2130.35 123.11 2130.54 123.234 2130.7 123.393C2130.86 123.552 2130.98 123.744 2131.06 123.954C2131.14 124.165 2131.18 124.39 2131.16 124.615V204.54C2131.18 204.765 2131.14 204.99 2131.06 205.201C2130.98 205.412 2130.86 205.603 2130.7 205.762C2130.54 205.921 2130.35 206.045 2130.13 206.124C2129.92 206.204 2129.69 206.237 2129.47 206.223H2121.7C2121.47 206.237 2121.24 206.204 2121.03 206.124C2120.82 206.045 2120.63 205.921 2120.46 205.762C2120.3 205.603 2120.18 205.412 2120.1 205.201C2120.02 204.99 2119.99 204.765 2120 204.54V147.8L2088.69 192.776C2088.59 192.998 2088.42 193.187 2088.21 193.319C2088.01 193.451 2087.77 193.521 2087.52 193.521C2087.27 193.521 2087.03 193.451 2086.82 193.319C2086.62 193.187 2086.45 192.998 2086.35 192.776L2055.04 147.8V204.533C2055.06 204.758 2055.03 204.983 2054.95 205.194C2054.87 205.405 2054.74 205.596 2054.58 205.755C2054.42 205.914 2054.23 206.038 2054.02 206.117C2053.8 206.197 2053.58 206.23 2053.35 206.216H2045.58C2045.35 206.23 2045.12 206.197 2044.91 206.117C2044.7 206.038 2044.51 205.914 2044.35 205.755C2044.19 205.596 2044.06 205.405 2043.98 205.194C2043.9 204.983 2043.87 204.758 2043.88 204.533V124.608C2043.87 124.383 2043.9 124.158 2043.98 123.947C2044.06 123.737 2044.19 123.545 2044.35 123.386C2044.51 123.227 2044.7 123.103 2044.91 123.024C2045.12 122.944 2045.35 122.911 2045.58 122.925H2048.09C2048.51 122.927 2048.92 123.032 2049.29 123.231C2049.66 123.431 2049.98 123.718 2050.21 124.068L2087.51 175.76L2124.84 124.068C2125.06 123.72 2125.36 123.433 2125.72 123.233C2126.08 123.033 2126.49 122.927 2126.9 122.925" fill="white"/>
<path d="M2256.76 125.933V204.526C2256.76 204.97 2256.57 205.393 2256.26 205.707C2255.94 206.021 2255.51 206.202 2255.07 206.209H2247.3C2246.85 206.202 2246.42 206.021 2246.11 205.707C2245.79 205.393 2245.61 204.97 2245.6 204.526V168.72H2194.19V204.526C2194.18 204.97 2194 205.393 2193.68 205.707C2193.37 206.021 2192.94 206.202 2192.49 206.209H2184.72C2184.27 206.202 2183.85 206.021 2183.53 205.707C2183.21 205.393 2183.03 204.97 2183.03 204.526V125.933C2183.03 125.489 2183.21 125.065 2183.53 124.751C2183.85 124.437 2184.27 124.257 2184.72 124.25H2192.49C2192.94 124.257 2193.37 124.437 2193.68 124.751C2194 125.065 2194.18 125.489 2194.19 125.933V159.319H2245.6V125.933C2245.61 125.489 2245.79 125.065 2246.11 124.751C2246.42 124.437 2246.85 124.257 2247.3 124.25H2255.07C2255.51 124.257 2255.94 124.437 2256.26 124.751C2256.57 125.065 2256.76 125.489 2256.76 125.933Z" fill="white"/>
<path d="M2388.88 165.232C2388.8 173.479 2386.26 181.518 2381.59 188.337C2376.92 195.156 2370.31 200.449 2362.61 203.551C2354.91 206.652 2346.46 207.423 2338.32 205.766C2330.17 204.109 2322.71 200.098 2316.86 194.238C2311.01 188.379 2307.04 180.933 2305.45 172.838C2303.86 164.744 2304.71 156.363 2307.91 148.751C2311.11 141.139 2316.51 134.636 2323.42 130.062C2330.34 125.488 2338.46 123.047 2346.77 123.047C2352.36 122.969 2357.9 124.01 2363.07 126.108C2368.24 128.205 2372.94 131.316 2376.87 135.254C2380.8 139.193 2383.89 143.878 2385.95 149.028C2388.02 154.179 2389.01 159.69 2388.88 165.232ZM2377.2 165.232C2377.2 145.819 2364.44 132.449 2346.77 132.449C2329.1 132.449 2316.35 145.819 2316.35 165.232C2316.35 184.645 2329.1 198.016 2346.77 198.016C2364.44 198.016 2377.2 184.645 2377.2 165.232Z" fill="white"/>
<path d="M2495.24 198.482V204.526C2495.26 204.75 2495.22 204.977 2495.14 205.187C2495.06 205.398 2494.94 205.588 2494.78 205.747C2494.62 205.907 2494.42 206.03 2494.21 206.11C2494 206.189 2493.77 206.224 2493.55 206.209H2438.48C2438.03 206.202 2437.61 206.021 2437.29 205.707C2436.97 205.393 2436.79 204.97 2436.79 204.526V125.933C2436.79 125.489 2436.97 125.065 2437.29 124.751C2437.61 124.437 2438.03 124.257 2438.48 124.25H2446.25C2446.7 124.259 2447.12 124.439 2447.44 124.753C2447.75 125.067 2447.93 125.49 2447.94 125.933V196.8H2493.57C2493.79 196.785 2494.02 196.819 2494.23 196.898C2494.45 196.978 2494.64 197.101 2494.8 197.26C2494.96 197.42 2495.08 197.612 2495.16 197.823C2495.24 198.033 2495.28 198.257 2495.26 198.482" fill="white"/>
<path d="M2602.52 198.474V204.517C2602.54 204.742 2602.5 204.967 2602.42 205.178C2602.34 205.389 2602.22 205.58 2602.06 205.739C2601.9 205.898 2601.7 206.022 2601.49 206.101C2601.28 206.181 2601.05 206.214 2600.83 206.2H2541.36C2540.91 206.193 2540.49 206.013 2540.17 205.699C2539.85 205.385 2539.67 204.961 2539.66 204.517V125.924C2539.67 125.48 2539.85 125.056 2540.17 124.742C2540.49 124.428 2540.91 124.249 2541.36 124.242H2599.48C2599.7 124.227 2599.93 124.261 2600.14 124.34C2600.35 124.42 2600.55 124.543 2600.71 124.702C2600.87 124.862 2600.99 125.053 2601.07 125.264C2601.15 125.474 2601.19 125.7 2601.17 125.924V131.968C2601.19 132.192 2601.15 132.418 2601.07 132.628C2600.99 132.839 2600.87 133.03 2600.71 133.19C2600.55 133.349 2600.35 133.472 2600.14 133.552C2599.93 133.631 2599.7 133.665 2599.48 133.65H2550.81V159.31H2594.06C2594.29 159.296 2594.51 159.329 2594.72 159.406C2594.93 159.484 2595.12 159.604 2595.28 159.76C2595.44 159.915 2595.56 160.102 2595.65 160.309C2595.73 160.515 2595.76 160.736 2595.75 160.958V167.036C2595.77 167.26 2595.73 167.484 2595.65 167.693C2595.57 167.902 2595.45 168.092 2595.29 168.251C2595.13 168.409 2594.94 168.532 2594.73 168.612C2594.52 168.691 2594.29 168.725 2594.06 168.712H2550.81V196.791H2600.83C2601.06 196.777 2601.29 196.81 2601.5 196.89C2601.71 196.969 2601.9 197.093 2602.06 197.252C2602.22 197.411 2602.35 197.603 2602.43 197.813C2602.51 198.024 2602.54 198.249 2602.53 198.474" fill="white"/>
<path d="M1463.76 277.223C1434.94 277.204 1407.3 265.753 1386.91 245.382C1366.52 225.011 1355.04 197.384 1355 168.562C1355.04 139.738 1366.52 112.11 1386.91 91.7363C1407.3 71.363 1434.94 59.9088 1463.76 59.8867C1492.58 59.9088 1520.22 71.363 1540.61 91.7363C1561 112.11 1572.47 139.738 1572.52 168.562C1572.47 197.384 1561 225.011 1540.61 245.382C1520.22 265.753 1492.58 277.204 1463.76 277.223ZM1463.76 68.2528C1437.15 68.2712 1411.64 78.8428 1392.82 97.648C1374 116.453 1363.41 141.956 1363.37 168.562C1363.39 195.171 1373.98 220.681 1392.8 239.487C1411.63 258.293 1437.15 268.857 1463.76 268.857C1490.37 268.857 1515.89 258.293 1534.71 239.487C1553.54 220.681 1564.13 195.171 1564.15 168.562C1564.11 141.956 1553.52 116.453 1534.7 97.648C1515.88 78.8428 1490.36 68.2712 1463.76 68.2528Z" fill="white"/>
<path d="M1477.51 260.034C1453.63 260.015 1430.73 250.526 1413.84 233.648C1396.95 216.769 1387.44 193.88 1387.41 170.001C1387.44 146.123 1396.95 123.233 1413.84 106.355C1430.73 89.4764 1453.63 79.9873 1477.51 79.9688C1501.39 79.9873 1524.28 89.4764 1541.17 106.355C1558.07 123.233 1567.57 146.123 1567.61 170.001C1567.57 193.88 1558.07 216.769 1541.17 233.648C1524.28 250.526 1501.39 260.015 1477.51 260.034ZM1477.51 86.4664C1455.35 86.4848 1434.11 95.29 1418.44 110.95C1402.77 126.611 1393.95 147.847 1393.92 170.001C1393.95 192.153 1402.78 213.386 1418.45 229.043C1434.12 244.701 1455.36 253.504 1477.51 253.522C1499.66 253.504 1520.9 244.701 1536.57 229.043C1552.24 213.386 1561.06 192.153 1561.1 170.001C1561.06 147.85 1552.24 126.616 1536.57 110.959C1520.9 95.302 1499.66 86.4988 1477.51 86.4804V86.4664Z" fill="white"/>
<path d="M1491.26 242.851C1472.32 242.836 1454.17 235.312 1440.77 221.928C1427.38 208.545 1419.84 190.395 1419.81 171.46C1419.84 152.526 1427.38 134.376 1440.77 120.993C1454.17 107.61 1472.32 100.085 1491.26 100.07C1510.19 100.081 1528.35 107.605 1541.75 120.989C1555.14 134.373 1562.68 152.525 1562.7 171.46C1562.67 190.395 1555.14 208.545 1541.74 221.928C1528.35 235.312 1510.19 242.836 1491.26 242.851ZM1491.26 104.713C1473.55 104.725 1456.58 111.759 1444.05 124.272C1431.53 136.786 1424.48 153.756 1424.46 171.46C1424.49 189.162 1431.54 206.129 1444.06 218.64C1456.58 231.15 1473.56 238.183 1491.26 238.194C1508.96 238.183 1525.93 231.15 1538.46 218.64C1550.98 206.129 1558.03 189.162 1558.06 171.46C1558.04 153.756 1550.99 136.786 1538.46 124.272C1525.94 111.759 1508.96 104.725 1491.26 104.713Z" fill="white"/>
<path d="M1505.01 225.662C1491.02 225.651 1477.6 220.091 1467.71 210.203C1457.81 200.314 1452.24 186.904 1452.22 172.914C1452.24 158.922 1457.81 145.508 1467.7 135.616C1477.6 125.725 1491.02 120.163 1505.01 120.152C1519 120.163 1532.42 125.725 1542.32 135.616C1552.21 145.508 1557.78 158.922 1557.8 172.914C1557.78 186.904 1552.21 200.314 1542.31 210.203C1532.41 220.091 1519 225.651 1505.01 225.662ZM1505.01 122.941C1491.76 122.952 1479.05 128.22 1469.68 137.588C1460.3 146.957 1455.03 159.661 1455.01 172.914C1455.03 186.164 1460.31 198.865 1469.68 208.231C1479.05 217.596 1491.76 222.862 1505.01 222.873C1518.26 222.862 1530.97 217.596 1540.34 208.231C1549.71 198.865 1554.99 186.164 1555.01 172.914C1554.99 159.661 1549.72 146.957 1540.34 137.588C1530.97 128.22 1518.26 122.952 1505.01 122.941Z" fill="white"/>
</g>
<path d="M1119.38 193H1097.23L1075.98 158.44L1054.74 193H1034L1064.34 145.896L1035.92 101.608H1057.3L1077.01 134.504L1096.34 101.608H1117.2L1088.53 146.92L1119.38 193Z" fill="white"/>
<circle cx="108.5" cy="210.598" r="21.7" fill="white"/>
<circle cx="108.5" cy="145.501" r="21.7" fill="white"/>
<circle cx="108.5" cy="80.3992" r="21.7" fill="white"/>
<circle cx="43.4" cy="80.3992" r="21.7" fill="white"/>
<circle cx="173.6" cy="80.3992" r="21.7" fill="white"/>
<circle cx="141.05" cy="243.151" r="10.85" fill="white"/>
<circle cx="141.05" cy="178.049" r="10.85" fill="white"/>
<circle cx="141.05" cy="112.952" r="10.85" fill="white"/>
<circle cx="206.15" cy="112.952" r="10.85" fill="white"/>
<circle cx="206.15" cy="47.85" r="10.85" fill="white"/>
<circle cx="141.05" cy="47.85" r="10.85" fill="white"/>
<circle cx="75.9501" cy="112.952" r="10.85" fill="white"/>
<circle cx="10.85" cy="112.952" r="10.85" fill="white"/>
<circle cx="75.9501" cy="47.85" r="10.85" fill="white"/>
<circle cx="10.85" cy="47.85" r="10.85" fill="white"/>
<circle cx="75.9501" cy="178.049" r="10.85" fill="white"/>
<circle cx="75.9501" cy="243.151" r="10.85" fill="white"/>
<path d="M307.72 214H288.392V138.736H263.56V122.608H332.552V138.736H307.72V214ZM393.581 214L386.925 192.24H353.645L346.989 214H326.125L358.381 122.224H382.061L414.445 214H393.581ZM375.661 154.736C375.234 153.285 374.68 151.451 373.997 149.232C373.314 147.013 372.632 144.752 371.949 142.448C371.266 140.144 370.712 138.139 370.285 136.432C369.858 138.139 369.261 140.272 368.493 142.832C367.81 145.307 367.128 147.696 366.445 150C365.848 152.219 365.378 153.797 365.037 154.736L358.509 175.984H382.317L375.661 154.736ZM454.436 176.368L435.364 214H414.5L444.836 158.192V122.608H464.036V157.552L494.372 214H473.38L454.436 176.368ZM561.831 214L555.175 192.24H521.895L515.239 214H494.375L526.631 122.224H550.311L582.695 214H561.831ZM543.911 154.736C543.484 153.285 542.93 151.451 542.247 149.232C541.564 147.013 540.882 144.752 540.199 142.448C539.516 140.144 538.962 138.139 538.535 136.432C538.108 138.139 537.511 140.272 536.743 142.832C536.06 145.307 535.378 147.696 534.695 150C534.098 152.219 533.628 153.797 533.287 154.736L526.759 175.984H550.567L543.911 154.736ZM620.894 164.848C620.894 167.664 620.169 170.053 618.718 172.016C617.267 173.979 615.091 175.472 612.19 176.496C609.374 177.52 605.833 178.032 601.566 178.032C598.409 178.032 595.678 177.861 593.374 177.52C591.155 177.093 588.894 176.453 586.59 175.6V166.128C589.065 167.152 591.71 168.005 594.526 168.688C597.342 169.371 599.817 169.712 601.95 169.712C604.339 169.712 606.046 169.371 607.07 168.688C608.179 168.005 608.734 167.109 608.734 166C608.734 165.317 608.521 164.72 608.094 164.208C607.667 163.611 606.771 162.971 605.406 162.288C604.041 161.52 601.865 160.581 598.878 159.472C596.062 158.363 593.715 157.253 591.838 156.144C590.046 155.035 588.681 153.712 587.742 152.176C586.889 150.555 586.462 148.592 586.462 146.288C586.462 142.363 588.083 139.419 591.326 137.456C594.654 135.493 599.049 134.512 604.51 134.512C607.326 134.512 610.014 134.811 612.574 135.408C615.134 135.92 617.737 136.731 620.382 137.84L616.67 146.032C615.219 145.435 613.769 144.923 612.318 144.496C610.953 144.069 609.587 143.728 608.222 143.472C606.942 143.131 605.619 142.96 604.254 142.96C602.462 142.96 601.097 143.216 600.158 143.728C599.219 144.155 598.75 144.837 598.75 145.776C598.75 146.459 599.006 147.056 599.518 147.568C600.03 148.08 600.926 148.677 602.206 149.36C603.571 149.957 605.619 150.768 608.35 151.792C610.91 152.731 613.129 153.755 615.006 154.864C616.883 155.888 618.334 157.211 619.358 158.832C620.382 160.368 620.894 162.373 620.894 164.848ZM664.445 162.544C664.274 161.691 663.976 160.411 663.549 158.704C663.122 156.997 662.653 155.163 662.141 153.2C661.629 151.237 661.16 149.445 660.733 147.824C660.306 146.117 660.008 144.88 659.837 144.112H659.453C659.282 144.88 658.984 146.117 658.557 147.824C658.13 149.445 657.661 151.237 657.149 153.2C656.722 155.163 656.296 157.04 655.869 158.832C655.442 160.539 655.101 161.861 654.845 162.8L651.133 177.264H637.821L625.021 135.28H637.309L642.557 153.968C642.898 155.248 643.24 156.784 643.581 158.576C643.922 160.368 644.221 162.117 644.477 163.824C644.733 165.445 644.904 166.725 644.989 167.664H645.373C645.373 166.896 645.458 165.915 645.629 164.72C645.8 163.525 646.013 162.288 646.269 161.008C646.525 159.728 646.738 158.576 646.909 157.552C647.165 156.528 647.336 155.845 647.421 155.504L653.053 135.28H666.621L671.997 155.504C672.168 156.187 672.381 157.339 672.637 158.96C672.978 160.496 673.277 162.117 673.533 163.824C673.789 165.445 673.917 166.725 673.917 167.664H674.301C674.386 166.811 674.557 165.573 674.813 163.952C675.154 162.245 675.496 160.496 675.837 158.704C676.178 156.827 676.562 155.248 676.989 153.968L682.365 135.28H694.525L681.469 177.264H668.029L664.445 162.544ZM720.338 134.512C726.397 134.512 731.047 135.749 734.29 138.224C737.618 140.613 739.282 144.325 739.282 149.36V177.264H730.578L728.146 171.632H727.89C726.61 173.083 725.287 174.32 723.922 175.344C722.557 176.283 720.978 176.965 719.186 177.392C717.479 177.819 715.346 178.032 712.786 178.032C710.141 178.032 707.751 177.563 705.618 176.624C703.485 175.685 701.778 174.235 700.498 172.272C699.303 170.309 698.706 167.792 698.706 164.72C698.706 160.283 700.37 156.997 703.698 154.864C707.111 152.731 712.231 151.579 719.058 151.408L726.994 151.152V149.36C726.994 147.141 726.354 145.52 725.074 144.496C723.794 143.472 722.045 142.96 719.826 142.96C717.693 142.96 715.559 143.259 713.426 143.856C711.293 144.368 709.159 145.093 707.026 146.032L702.93 138.224C705.405 137.115 708.135 136.219 711.122 135.536C714.109 134.853 717.181 134.512 720.338 134.512ZM722.13 157.936C718.119 158.107 715.346 158.789 713.81 159.984C712.274 161.179 711.506 162.8 711.506 164.848C711.506 166.555 712.061 167.792 713.17 168.56C714.279 169.328 715.73 169.712 717.522 169.712C720.167 169.712 722.386 168.987 724.178 167.536C726.055 166.085 726.994 163.995 726.994 161.264V157.808L722.13 157.936ZM777.244 134.512C782.364 134.512 786.503 136.347 789.66 140.016C792.817 143.685 794.396 149.104 794.396 156.272C794.396 160.965 793.628 164.933 792.092 168.176C790.641 171.419 788.593 173.893 785.948 175.6C783.388 177.221 780.401 178.032 776.988 178.032C774.769 178.032 772.849 177.776 771.228 177.264C769.692 176.752 768.369 176.112 767.26 175.344C766.151 174.491 765.212 173.595 764.444 172.656H763.676C763.932 173.68 764.103 174.704 764.188 175.728C764.359 176.752 764.444 177.776 764.444 178.8V195.696H752.028V135.28H762.012L763.804 140.784H764.444C765.212 139.675 766.151 138.651 767.26 137.712C768.455 136.773 769.863 136.005 771.484 135.408C773.191 134.811 775.111 134.512 777.244 134.512ZM773.276 143.728C771.143 143.728 769.436 144.155 768.156 145.008C766.876 145.776 765.937 147.013 765.34 148.72C764.743 150.341 764.444 152.389 764.444 154.864V156.144C764.444 158.875 764.7 161.179 765.212 163.056C765.724 164.933 766.62 166.341 767.9 167.28C769.265 168.219 771.1 168.688 773.404 168.688C775.367 168.688 776.945 168.219 778.14 167.28C779.335 166.341 780.231 164.933 780.828 163.056C781.425 161.093 781.724 158.747 781.724 156.016C781.724 151.92 781.041 148.848 779.676 146.8C778.311 144.752 776.177 143.728 773.276 143.728Z" fill="white"/>
<defs>
<clipPath id="clip0_1509_1368">
<rect width="1248" height="219" fill="white" transform="translate(1355 59)"/>
</clipPath>
</defs>
</svg>
