<svg width="812" height="201" viewBox="0 0 812 201" fill="none" xmlns="http://www.w3.org/2000/svg">
<mask id="path-1-inside-1_1742_1356" fill="white">
<path d="M177.273 88.6364C177.273 76.9965 174.98 65.4706 170.526 54.7167C166.071 43.9628 159.542 34.1916 151.312 25.961C143.081 17.7303 133.31 11.2014 122.556 6.74704C111.802 2.29265 100.276 -5.08796e-07 88.6364 0C76.9965 5.08796e-07 65.4705 2.29265 54.7167 6.74704C43.9628 11.2014 34.1916 17.7303 25.961 25.961C17.7303 34.1916 11.2014 43.9628 6.74704 54.7167C2.29265 65.4706 -1.01759e-06 76.9965 0 88.6364L17.7273 88.6364C17.7273 79.3245 19.5614 70.1037 23.1249 61.5006C26.6884 52.8975 31.9115 45.0806 38.4961 38.4961C45.0806 31.9115 52.8975 26.6884 61.5006 23.1249C70.1037 19.5614 79.3244 17.7273 88.6364 17.7273C97.9483 17.7273 107.169 19.5614 115.772 23.1249C124.375 26.6884 132.192 31.9115 138.777 38.4961C145.361 45.0806 150.584 52.8975 154.148 61.5006C157.711 70.1037 159.545 79.3245 159.545 88.6364H177.273Z"/>
</mask>
<path d="M177.273 88.6364C177.273 76.9965 174.98 65.4706 170.526 54.7167C166.071 43.9628 159.542 34.1916 151.312 25.961C143.081 17.7303 133.31 11.2014 122.556 6.74704C111.802 2.29265 100.276 -5.08796e-07 88.6364 0C76.9965 5.08796e-07 65.4705 2.29265 54.7167 6.74704C43.9628 11.2014 34.1916 17.7303 25.961 25.961C17.7303 34.1916 11.2014 43.9628 6.74704 54.7167C2.29265 65.4706 -1.01759e-06 76.9965 0 88.6364L17.7273 88.6364C17.7273 79.3245 19.5614 70.1037 23.1249 61.5006C26.6884 52.8975 31.9115 45.0806 38.4961 38.4961C45.0806 31.9115 52.8975 26.6884 61.5006 23.1249C70.1037 19.5614 79.3244 17.7273 88.6364 17.7273C97.9483 17.7273 107.169 19.5614 115.772 23.1249C124.375 26.6884 132.192 31.9115 138.777 38.4961C145.361 45.0806 150.584 52.8975 154.148 61.5006C157.711 70.1037 159.545 79.3245 159.545 88.6364H177.273Z" stroke="white" stroke-width="20" mask="url(#path-1-inside-1_1742_1356)"/>
<mask id="path-2-inside-2_1742_1356" fill="white">
<path d="M82.7273 112.273C82.7273 123.913 85.0199 135.439 89.4743 146.192C93.9287 156.946 100.458 166.718 108.688 174.948C116.919 183.179 126.69 189.708 137.444 194.162C148.198 198.617 159.724 200.909 171.364 200.909C183.004 200.909 194.529 198.617 205.283 194.162C216.037 189.708 225.808 183.179 234.039 174.948C242.27 166.718 248.799 156.946 253.253 146.192C257.707 135.439 260 123.913 260 112.273L242.273 112.273C242.273 121.585 240.439 130.805 236.875 139.409C233.312 148.012 228.088 155.829 221.504 162.413C214.919 168.998 207.102 174.221 198.499 177.784C189.896 181.348 180.676 183.182 171.364 183.182C162.052 183.182 152.831 181.348 144.228 177.784C135.625 174.221 127.808 168.998 121.223 162.413C114.639 155.829 109.416 148.012 105.852 139.409C102.289 130.805 100.455 121.585 100.455 112.273L82.7273 112.273Z"/>
</mask>
<path d="M82.7273 112.273C82.7273 123.913 85.0199 135.439 89.4743 146.192C93.9287 156.946 100.458 166.718 108.688 174.948C116.919 183.179 126.69 189.708 137.444 194.162C148.198 198.617 159.724 200.909 171.364 200.909C183.004 200.909 194.529 198.617 205.283 194.162C216.037 189.708 225.808 183.179 234.039 174.948C242.27 166.718 248.799 156.946 253.253 146.192C257.707 135.439 260 123.913 260 112.273L242.273 112.273C242.273 121.585 240.439 130.805 236.875 139.409C233.312 148.012 228.088 155.829 221.504 162.413C214.919 168.998 207.102 174.221 198.499 177.784C189.896 181.348 180.676 183.182 171.364 183.182C162.052 183.182 152.831 181.348 144.228 177.784C135.625 174.221 127.808 168.998 121.223 162.413C114.639 155.829 109.416 148.012 105.852 139.409C102.289 130.805 100.455 121.585 100.455 112.273L82.7273 112.273Z" stroke="white" stroke-width="20" mask="url(#path-2-inside-2_1742_1356)"/>
<path d="M1.5 90.1365H250C254.694 90.1365 258.5 93.9421 258.5 98.6365V110.773H10C5.30559 110.773 1.5 106.967 1.5 102.273V90.1365Z" stroke="white" stroke-width="3"/>
<path d="M352 77.5625C350.417 69.9375 347.5 64.0208 343.25 59.8125C339.042 55.6042 333.979 53.5 328.062 53.5C322.271 53.5 317.771 54.875 314.562 57.625C311.396 60.375 309.812 64.0417 309.812 68.625C309.812 71.1667 310.042 73.2708 310.5 74.9375C310.958 76.6042 311.896 78.2292 313.312 79.8125C314.729 81.3542 316.792 82.7292 319.5 83.9375C322.208 85.1042 325.75 86.2292 330.125 87.3125C332.5 87.8958 334.562 88.4375 336.312 88.9375C338.104 89.4375 340.062 90.125 342.188 91C344.354 91.875 346.208 92.8125 347.75 93.8125C349.333 94.8125 350.896 96.0625 352.438 97.5625C354.021 99.0208 355.292 100.646 356.25 102.438C357.25 104.229 358.042 106.354 358.625 108.812C359.25 111.229 359.562 113.875 359.562 116.75C359.562 120.583 358.854 124.125 357.438 127.375C356.021 130.583 354.167 133.292 351.875 135.5C349.583 137.708 346.938 139.583 343.938 141.125C340.938 142.667 337.896 143.792 334.812 144.5C331.729 145.208 328.667 145.562 325.625 145.562C316.375 145.562 306.521 143.167 296.062 138.375C296.271 133.875 296.375 131.104 296.375 130.062C296.375 123.271 295.812 116.5 294.688 109.75C295.146 109.458 295.604 109.312 296.062 109.312C296.646 109.312 297.167 109.458 297.625 109.75C298.5 115.125 299.938 119.875 301.938 124C303.979 128.125 306.312 131.396 308.938 133.812C311.562 136.188 314.271 137.979 317.062 139.188C319.896 140.354 322.75 140.938 325.625 140.938C332.167 140.938 337.188 139.25 340.688 135.875C344.229 132.458 346 127.958 346 122.375C346 116.75 344.688 112.521 342.062 109.688C339.479 106.812 334.521 104.479 327.188 102.688C318.021 100.396 310.854 97.0208 305.688 92.5625C300.562 88.0625 298 82.125 298 74.75C298 70.875 298.625 67.4167 299.875 64.375C301.167 61.2917 302.812 58.8333 304.812 57C306.854 55.125 309.229 53.5833 311.938 52.375C314.646 51.125 317.312 50.2708 319.938 49.8125C322.604 49.3125 325.312 49.0625 328.062 49.0625C336.312 49.0625 344.896 50.9792 353.812 54.8125C353.562 57.2708 353.438 59.8333 353.438 62.5C353.438 68.75 353.938 73.7708 354.938 77.5625C354.396 77.7708 353.938 77.875 353.562 77.875C353.146 77.875 352.625 77.7708 352 77.5625ZM370.938 87.5625C372.438 87.6458 373.938 87.7292 375.438 87.8125C376.938 87.8958 378.125 87.9583 379 88C379.875 88.0417 380.688 88.0625 381.438 88.0625C382.062 88.0625 382.792 88.0417 383.625 88C384.458 87.9583 385.583 87.8958 387 87.8125C388.458 87.7292 389.854 87.6458 391.188 87.5625C391.938 87.8125 392.542 88.4583 393 89.5C392.958 89.8333 392.875 90.3333 392.75 91C392.667 91.625 392.583 92.3958 392.5 93.3125C392.458 94.1875 392.438 95.2708 392.438 96.5625L392.312 126.25C392.312 133.75 394.583 137.5 399.125 137.5C403.333 137.5 409.312 134.729 417.062 129.188C417.062 116.771 416.875 105.896 416.5 96.5625C416.5 95.8125 416.354 95.1458 416.062 94.5625C415.771 93.9792 415.312 93.4792 414.688 93.0625C414.104 92.6458 413.562 92.3125 413.062 92.0625C412.604 91.7708 411.917 91.5208 411 91.3125C410.083 91.0625 409.438 90.9167 409.062 90.875C408.688 90.7917 408.062 90.6667 407.188 90.5C407.021 89.8333 406.938 89.3333 406.938 89C406.938 88.7083 407.021 88.2292 407.188 87.5625C408.646 87.6458 410.125 87.7292 411.625 87.8125C413.167 87.8958 414.375 87.9583 415.25 88C416.125 88.0417 416.938 88.0625 417.688 88.0625C418.312 88.0625 419.042 88.0417 419.875 88C420.708 87.9583 421.833 87.8958 423.25 87.8125C424.708 87.7292 426.104 87.6458 427.438 87.5625C427.646 87.6875 427.812 87.8125 427.938 87.9375C428.104 88.0208 428.229 88.1458 428.312 88.3125C428.438 88.4375 428.521 88.5417 428.562 88.625C428.604 88.6667 428.667 88.8125 428.75 89.0625C428.833 89.2708 428.896 89.4167 428.938 89.5C428.604 91.75 428.438 94.1042 428.438 96.5625C428.188 102.688 428.062 107.667 428.062 111.5C428.062 113.5 428.104 116.854 428.188 121.562C428.271 126.271 428.312 130.396 428.312 133.938C430.688 135.312 434.688 136.167 440.312 136.5C440.521 137.542 440.625 138.083 440.625 138.125C440.625 138.375 440.521 138.812 440.312 139.438C432.438 140.188 425.396 141.896 419.188 144.562C418.104 144.104 417.396 143.542 417.062 142.875V133.125C412.896 136.708 408.958 139.562 405.25 141.688C401.583 143.771 397.875 144.812 394.125 144.812C389.375 144.812 386 143.479 384 140.812C382.042 138.146 381.021 133.958 380.938 128.25L380.438 96.5625C380.354 95.6042 380.167 94.8958 379.875 94.4375C379.625 93.9375 379.188 93.4792 378.562 93.0625C377.979 92.6458 377.438 92.3125 376.938 92.0625C376.438 91.7708 375.729 91.5208 374.812 91.3125C373.896 91.0625 373.25 90.9167 372.875 90.875C372.5 90.7917 371.854 90.6667 370.938 90.5C370.771 89.8333 370.688 89.3333 370.688 89C370.688 88.7083 370.771 88.2292 370.938 87.5625ZM445.375 53.125C453.333 52.375 460.375 50.6667 466.5 48C467.667 48.5 468.396 49.0625 468.688 49.6875V95.625C475.146 89.3333 481.667 86.1875 488.25 86.1875C494.667 86.1875 499.896 88.5833 503.938 93.375C507.979 98.125 510 104.562 510 112.688C510 115.729 509.667 118.729 509 121.688C508.333 124.604 507.229 127.479 505.688 130.312C504.146 133.104 502.25 135.562 500 137.688C497.75 139.812 494.896 141.542 491.438 142.875C487.979 144.167 484.146 144.812 479.938 144.812C475.812 144.812 471.792 144.125 467.875 142.75C463.958 141.375 460.479 139.417 457.438 136.875C457.521 132.75 457.562 122.708 457.562 106.75C457.562 100.125 457.542 91.1042 457.5 79.6875C457.458 68.2708 457.438 61.25 457.438 58.625C455.104 57.25 451.083 56.3958 445.375 56.0625C445.208 55.3958 445.125 54.8958 445.125 54.5625C445.125 54.2708 445.208 53.7917 445.375 53.125ZM482.25 94.375C479.458 94.375 477.021 94.8958 474.938 95.9375C472.896 96.9375 470.812 98.4583 468.688 100.5C468.688 114 468.771 124.917 468.938 133.25C471.812 138.208 476.208 140.688 482.125 140.688C483.375 140.688 484.625 140.479 485.875 140.062C487.167 139.646 488.521 138.854 489.938 137.688C491.354 136.521 492.583 135.042 493.625 133.25C494.708 131.458 495.604 129.042 496.312 126C497.021 122.958 497.375 119.5 497.375 115.625C497.375 111.625 496.854 108.062 495.812 104.938C494.771 101.812 493.083 99.2708 490.75 97.3125C488.417 95.3542 485.583 94.375 482.25 94.375ZM522.625 51.125C531.958 51.4583 539.208 51.625 544.375 51.625C549.542 51.625 556.792 51.4583 566.125 51.125C566.292 51.7917 566.375 52.25 566.375 52.5C566.375 52.7917 566.292 53.3125 566.125 54.0625C564.208 54.2292 562.646 54.4167 561.438 54.625C560.271 54.7917 558.812 55.0833 557.062 55.5C555.354 55.9167 554.042 56.5208 553.125 57.3125C552.208 58.0625 551.729 58.9792 551.688 60.0625C551.146 74.2292 550.875 87.4167 550.875 99.625C550.875 105.917 551.104 119.104 551.562 139.188H570.875C577 138.771 582.479 137.875 587.312 136.5C592.146 135.125 596.167 133.375 599.375 131.25C602.625 129.083 605.292 126.854 607.375 124.562C609.5 122.229 611.333 119.625 612.875 116.75C613.958 117.167 614.667 117.729 615 118.438C613.292 121.604 611.958 124.167 611 126.125C610.083 128.083 609.062 130.667 607.938 133.875C606.854 137.042 606.146 140.083 605.812 143H551.562C540.271 143 530.583 143.125 522.5 143.375C522.333 142.875 522.25 142.458 522.25 142.125C522.25 141.833 522.333 141.271 522.5 140.438C524.417 140.271 525.958 140.104 527.125 139.938C528.333 139.729 529.792 139.417 531.5 139C533.25 138.583 534.583 138 535.5 137.25C536.417 136.458 536.896 135.521 536.938 134.438C537.438 121.396 537.688 108.25 537.688 95C537.688 81.5 537.479 69.8542 537.062 60.0625C537.021 58.9792 536.542 58.0625 535.625 57.3125C534.708 56.5208 533.375 55.9167 531.625 55.5C529.917 55.0833 528.458 54.7917 527.25 54.625C526.083 54.4167 524.542 54.2292 522.625 54.0625C522.458 53.3125 522.375 52.7917 522.375 52.5C522.375 52.0833 522.458 51.625 522.625 51.125ZM628.25 101.938C628.25 97.3542 630.333 93.5833 634.5 90.625C638.708 87.6667 643.667 86.1875 649.375 86.1875C656.375 86.1875 661.292 87.5833 664.125 90.375C667 93.1667 668.438 97.875 668.438 104.5V130.438C668.438 132.771 669.292 133.938 671 133.938C672.375 133.938 674.125 132.271 676.25 128.938C677.75 129.062 678.771 129.729 679.312 130.938C679.021 131.354 678.521 132.104 677.812 133.188C677.104 134.271 676.583 135.042 676.25 135.5C675.917 135.958 675.396 136.667 674.688 137.625C673.979 138.542 673.396 139.229 672.938 139.688C672.521 140.146 671.938 140.688 671.188 141.312C670.479 141.938 669.812 142.417 669.188 142.75C668.604 143.042 667.917 143.292 667.125 143.5C666.333 143.75 665.542 143.875 664.75 143.875C662.667 143.875 660.938 143.125 659.562 141.625C658.229 140.125 657.438 137.812 657.188 134.688C657.146 134.729 656.5 135.333 655.25 136.5C654 137.667 653.125 138.458 652.625 138.875C652.167 139.25 651.271 139.938 649.938 140.938C648.646 141.896 647.542 142.583 646.625 143C645.708 143.417 644.562 143.812 643.188 144.188C641.812 144.604 640.458 144.812 639.125 144.812C637 144.812 635.104 144.521 633.438 143.938C631.812 143.354 630.542 142.646 629.625 141.812C628.708 140.979 627.958 140.021 627.375 138.938C626.792 137.812 626.396 136.792 626.188 135.875C626.021 134.958 625.938 134.042 625.938 133.125C625.938 130.333 626.396 127.979 627.312 126.062C628.271 124.146 630.021 122.354 632.562 120.688C635.146 119.021 638.312 117.542 642.062 116.25C645.812 114.958 650.854 113.5 657.188 111.875V103.188C657.188 98.9792 656.25 95.8333 654.375 93.75C652.542 91.6667 650.062 90.625 646.938 90.625C644.146 90.625 641.792 91.1875 639.875 92.3125C638 93.3958 636.854 94.6667 636.438 96.125C640.521 96.75 642.562 98.9792 642.562 102.812C642.562 104.562 641.938 106.104 640.688 107.438C639.438 108.771 637.688 109.438 635.438 109.438C633.562 109.438 631.896 108.792 630.438 107.5C628.979 106.167 628.25 104.312 628.25 101.938ZM657.188 128.938V115.875C653.354 116.75 650.188 117.708 647.688 118.75C645.188 119.75 643.271 120.854 641.938 122.062C640.646 123.271 639.75 124.521 639.25 125.812C638.75 127.062 638.5 128.521 638.5 130.188C638.5 132.271 639.104 133.917 640.312 135.125C641.562 136.292 643.083 136.875 644.875 136.875C649.042 136.875 653.146 134.229 657.188 128.938ZM682.75 53.125C690.708 52.375 697.75 50.6667 703.875 48C705.042 48.5 705.771 49.0625 706.062 49.6875V95.625C712.521 89.3333 719.042 86.1875 725.625 86.1875C732.042 86.1875 737.271 88.5833 741.312 93.375C745.354 98.125 747.375 104.562 747.375 112.688C747.375 115.729 747.042 118.729 746.375 121.688C745.708 124.604 744.604 127.479 743.062 130.312C741.521 133.104 739.625 135.562 737.375 137.688C735.125 139.812 732.271 141.542 728.812 142.875C725.354 144.167 721.521 144.812 717.312 144.812C713.188 144.812 709.167 144.125 705.25 142.75C701.333 141.375 697.854 139.417 694.812 136.875C694.896 132.75 694.938 122.708 694.938 106.75C694.938 100.125 694.917 91.1042 694.875 79.6875C694.833 68.2708 694.812 61.25 694.812 58.625C692.479 57.25 688.458 56.3958 682.75 56.0625C682.583 55.3958 682.5 54.8958 682.5 54.5625C682.5 54.2708 682.583 53.7917 682.75 53.125ZM719.625 94.375C716.833 94.375 714.396 94.8958 712.312 95.9375C710.271 96.9375 708.188 98.4583 706.062 100.5C706.062 114 706.146 124.917 706.312 133.25C709.188 138.208 713.583 140.688 719.5 140.688C720.75 140.688 722 140.479 723.25 140.062C724.542 139.646 725.896 138.854 727.312 137.688C728.729 136.521 729.958 135.042 731 133.25C732.083 131.458 732.979 129.042 733.688 126C734.396 122.958 734.75 119.5 734.75 115.625C734.75 111.625 734.229 108.062 733.188 104.938C732.146 101.812 730.458 99.2708 728.125 97.3125C725.792 95.3542 722.958 94.375 719.625 94.375ZM784.062 144.812C782.021 144.812 780.167 144.646 778.5 144.312C776.875 143.979 775.604 143.625 774.688 143.25C773.812 142.875 772.625 142.312 771.125 141.562C769.5 141.562 767.104 142.167 763.938 143.375C763.396 143.042 763.021 142.667 762.812 142.25C763.021 141.583 763.271 139.312 763.562 135.438C763.896 131.562 764.062 128.104 764.062 125.062C764.604 124.812 765.583 124.688 767 124.688C767.75 127.104 768.521 129.167 769.312 130.875C770.146 132.583 771.188 134.25 772.438 135.875C773.729 137.458 775.271 138.667 777.062 139.5C778.896 140.292 780.979 140.688 783.312 140.688C786.938 140.688 789.771 139.75 791.812 137.875C793.896 136 794.938 133.875 794.938 131.5C794.938 129.708 794.646 128.188 794.062 126.938C793.479 125.688 792.167 124.375 790.125 123C788.125 121.583 785.25 120.188 781.5 118.812C779.167 117.979 777.188 117.208 775.562 116.5C773.938 115.792 772.25 114.917 770.5 113.875C768.792 112.833 767.417 111.771 766.375 110.688C765.333 109.562 764.479 108.229 763.812 106.688C763.146 105.146 762.812 103.458 762.812 101.625C762.812 100.292 762.958 98.9792 763.25 97.6875C763.583 96.3542 764.188 94.9792 765.062 93.5625C765.979 92.1458 767.104 90.9167 768.438 89.875C769.812 88.7917 771.625 87.9167 773.875 87.25C776.167 86.5417 778.75 86.1875 781.625 86.1875C782.792 86.1875 783.812 86.25 784.688 86.375C785.604 86.5 786.688 86.7292 787.938 87.0625C789.229 87.3542 789.938 87.5208 790.062 87.5625C790.979 87.3542 791.917 87.0833 792.875 86.75C793.875 86.4167 794.438 86.2292 794.562 86.1875H796.188C797.188 92.1875 798.479 97.2917 800.062 101.5C799.562 102.042 798.75 102.312 797.625 102.312C794.167 98.1458 791.208 95.1042 788.75 93.1875C786.333 91.2292 783.583 90.25 780.5 90.25C778.083 90.25 775.958 90.7917 774.125 91.875C772.292 92.9583 771.375 94.6042 771.375 96.8125C771.375 99.6042 772.479 101.792 774.688 103.375C776.938 104.958 781.083 106.979 787.125 109.438C789.917 110.562 792.104 111.5 793.688 112.25C795.312 113 796.938 113.896 798.562 114.938C800.188 115.979 801.375 117.062 802.125 118.188C802.917 119.271 803.562 120.583 804.062 122.125C804.562 123.667 804.812 125.458 804.812 127.5C804.812 131.917 802.771 135.917 798.688 139.5C794.646 143.042 789.771 144.812 784.062 144.812Z" fill="#FCFCFC"/>
</svg>
