<svg width="918" height="400" viewBox="0 0 918 400" fill="none" xmlns="http://www.w3.org/2000/svg">
<g clip-path="url(#clip0_1216_194)">
<circle cx="200" cy="320" r="40" fill="black"/>
<circle cx="200" cy="200" r="40" fill="black"/>
<circle cx="200" cy="80" r="40" fill="black"/>
<circle cx="80" cy="80" r="40" fill="black"/>
<circle cx="320" cy="80" r="40" fill="black"/>
<circle cx="260" cy="380" r="20" fill="black"/>
<circle cx="260" cy="260" r="20" fill="black"/>
<circle cx="260" cy="140" r="20" fill="black"/>
<circle cx="380" cy="140" r="20" fill="black"/>
<circle cx="380" cy="20" r="20" fill="black"/>
<circle cx="260" cy="20" r="20" fill="black"/>
<circle cx="140" cy="140" r="20" fill="black"/>
<circle cx="20" cy="140" r="20" fill="black"/>
<circle cx="140" cy="20" r="20" fill="black"/>
<circle cx="20" cy="20" r="20" fill="black"/>
<circle cx="140" cy="260" r="20" fill="black"/>
<circle cx="140" cy="380" r="20" fill="black"/>
<path d="M426.72 316H407.392V240.736H382.56V224.608H451.552V240.736H426.72V316ZM512.581 316L505.925 294.24H472.645L465.989 316H445.125L477.381 224.224H501.061L533.445 316H512.581ZM494.661 256.736C494.234 255.285 493.68 253.451 492.997 251.232C492.314 249.013 491.632 246.752 490.949 244.448C490.266 242.144 489.712 240.139 489.285 238.432C488.858 240.139 488.261 242.272 487.493 244.832C486.81 247.307 486.128 249.696 485.445 252C484.848 254.219 484.378 255.797 484.037 256.736L477.509 277.984H501.317L494.661 256.736ZM573.436 278.368L554.364 316H533.5L563.836 260.192V224.608H583.036V259.552L613.372 316H592.38L573.436 278.368ZM680.831 316L674.175 294.24H640.895L634.239 316H613.375L645.631 224.224H669.311L701.695 316H680.831ZM662.911 256.736C662.484 255.285 661.93 253.451 661.247 251.232C660.564 249.013 659.882 246.752 659.199 244.448C658.516 242.144 657.962 240.139 657.535 238.432C657.108 240.139 656.511 242.272 655.743 244.832C655.06 247.307 654.378 249.696 653.695 252C653.098 254.219 652.628 255.797 652.287 256.736L645.759 277.984H669.567L662.911 256.736ZM739.894 266.848C739.894 269.664 739.169 272.053 737.718 274.016C736.267 275.979 734.091 277.472 731.19 278.496C728.374 279.52 724.833 280.032 720.566 280.032C717.409 280.032 714.678 279.861 712.374 279.52C710.155 279.093 707.894 278.453 705.59 277.6V268.128C708.065 269.152 710.71 270.005 713.526 270.688C716.342 271.371 718.817 271.712 720.95 271.712C723.339 271.712 725.046 271.371 726.07 270.688C727.179 270.005 727.734 269.109 727.734 268C727.734 267.317 727.521 266.72 727.094 266.208C726.667 265.611 725.771 264.971 724.406 264.288C723.041 263.52 720.865 262.581 717.878 261.472C715.062 260.363 712.715 259.253 710.838 258.144C709.046 257.035 707.681 255.712 706.742 254.176C705.889 252.555 705.462 250.592 705.462 248.288C705.462 244.363 707.083 241.419 710.326 239.456C713.654 237.493 718.049 236.512 723.51 236.512C726.326 236.512 729.014 236.811 731.574 237.408C734.134 237.92 736.737 238.731 739.382 239.84L735.67 248.032C734.219 247.435 732.769 246.923 731.318 246.496C729.953 246.069 728.587 245.728 727.222 245.472C725.942 245.131 724.619 244.96 723.254 244.96C721.462 244.96 720.097 245.216 719.158 245.728C718.219 246.155 717.75 246.837 717.75 247.776C717.75 248.459 718.006 249.056 718.518 249.568C719.03 250.08 719.926 250.677 721.206 251.36C722.571 251.957 724.619 252.768 727.35 253.792C729.91 254.731 732.129 255.755 734.006 256.864C735.883 257.888 737.334 259.211 738.358 260.832C739.382 262.368 739.894 264.373 739.894 266.848ZM783.445 264.544C783.274 263.691 782.976 262.411 782.549 260.704C782.122 258.997 781.653 257.163 781.141 255.2C780.629 253.237 780.16 251.445 779.733 249.824C779.306 248.117 779.008 246.88 778.837 246.112H778.453C778.282 246.88 777.984 248.117 777.557 249.824C777.13 251.445 776.661 253.237 776.149 255.2C775.722 257.163 775.296 259.04 774.869 260.832C774.442 262.539 774.101 263.861 773.845 264.8L770.133 279.264H756.821L744.021 237.28H756.309L761.557 255.968C761.898 257.248 762.24 258.784 762.581 260.576C762.922 262.368 763.221 264.117 763.477 265.824C763.733 267.445 763.904 268.725 763.989 269.664H764.373C764.373 268.896 764.458 267.915 764.629 266.72C764.8 265.525 765.013 264.288 765.269 263.008C765.525 261.728 765.738 260.576 765.909 259.552C766.165 258.528 766.336 257.845 766.421 257.504L772.053 237.28H785.621L790.997 257.504C791.168 258.187 791.381 259.339 791.637 260.96C791.978 262.496 792.277 264.117 792.533 265.824C792.789 267.445 792.917 268.725 792.917 269.664H793.301C793.386 268.811 793.557 267.573 793.813 265.952C794.154 264.245 794.496 262.496 794.837 260.704C795.178 258.827 795.562 257.248 795.989 255.968L801.365 237.28H813.525L800.469 279.264H787.029L783.445 264.544ZM839.338 236.512C845.397 236.512 850.047 237.749 853.29 240.224C856.618 242.613 858.282 246.325 858.282 251.36V279.264H849.578L847.146 273.632H846.89C845.61 275.083 844.287 276.32 842.922 277.344C841.557 278.283 839.978 278.965 838.186 279.392C836.479 279.819 834.346 280.032 831.786 280.032C829.141 280.032 826.751 279.563 824.618 278.624C822.485 277.685 820.778 276.235 819.498 274.272C818.303 272.309 817.706 269.792 817.706 266.72C817.706 262.283 819.37 258.997 822.698 256.864C826.111 254.731 831.231 253.579 838.058 253.408L845.994 253.152V251.36C845.994 249.141 845.354 247.52 844.074 246.496C842.794 245.472 841.045 244.96 838.826 244.96C836.693 244.96 834.559 245.259 832.426 245.856C830.293 246.368 828.159 247.093 826.026 248.032L821.93 240.224C824.405 239.115 827.135 238.219 830.122 237.536C833.109 236.853 836.181 236.512 839.338 236.512ZM841.13 259.936C837.119 260.107 834.346 260.789 832.81 261.984C831.274 263.179 830.506 264.8 830.506 266.848C830.506 268.555 831.061 269.792 832.17 270.56C833.279 271.328 834.73 271.712 836.522 271.712C839.167 271.712 841.386 270.987 843.178 269.536C845.055 268.085 845.994 265.995 845.994 263.264V259.808L841.13 259.936ZM896.244 236.512C901.364 236.512 905.503 238.347 908.66 242.016C911.817 245.685 913.396 251.104 913.396 258.272C913.396 262.965 912.628 266.933 911.092 270.176C909.641 273.419 907.593 275.893 904.948 277.6C902.388 279.221 899.401 280.032 895.988 280.032C893.769 280.032 891.849 279.776 890.228 279.264C888.692 278.752 887.369 278.112 886.26 277.344C885.151 276.491 884.212 275.595 883.444 274.656H882.676C882.932 275.68 883.103 276.704 883.188 277.728C883.359 278.752 883.444 279.776 883.444 280.8V297.696H871.028V237.28H881.012L882.804 242.784H883.444C884.212 241.675 885.151 240.651 886.26 239.712C887.455 238.773 888.863 238.005 890.484 237.408C892.191 236.811 894.111 236.512 896.244 236.512ZM892.276 245.728C890.143 245.728 888.436 246.155 887.156 247.008C885.876 247.776 884.937 249.013 884.34 250.72C883.743 252.341 883.444 254.389 883.444 256.864V258.144C883.444 260.875 883.7 263.179 884.212 265.056C884.724 266.933 885.62 268.341 886.9 269.28C888.265 270.219 890.1 270.688 892.404 270.688C894.367 270.688 895.945 270.219 897.14 269.28C898.335 268.341 899.231 266.933 899.828 265.056C900.425 263.093 900.724 260.747 900.724 258.016C900.724 253.92 900.041 250.848 898.676 248.8C897.311 246.752 895.177 245.728 892.276 245.728Z" fill="black"/>
</g>
<defs>
<clipPath id="clip0_1216_194">
<rect width="918" height="400" fill="white"/>
</clipPath>
</defs>
</svg>
