<svg width="918" height="400" viewBox="0 0 918 400" fill="none" xmlns="http://www.w3.org/2000/svg">
<g clip-path="url(#clip0_1229_356)">
<circle cx="200" cy="320" r="37.5" fill="#2EF2FF" stroke="black" stroke-width="5"/>
<circle cx="200" cy="200" r="37.5" fill="#2EF2FF" stroke="black" stroke-width="5"/>
<circle cx="200" cy="80" r="37.5" fill="#2EF2FF" stroke="black" stroke-width="5"/>
<circle cx="80" cy="80" r="37.5" fill="#2EF2FF" stroke="black" stroke-width="5"/>
<circle cx="320" cy="80" r="37.5" fill="#2EF2FF" stroke="black" stroke-width="5"/>
<circle cx="260" cy="380" r="17.5" fill="#2EF2FF" stroke="black" stroke-width="5"/>
<circle cx="260" cy="260" r="17.5" fill="#2EF2FF" stroke="black" stroke-width="5"/>
<circle cx="260" cy="140" r="17.5" fill="#2EF2FF" stroke="black" stroke-width="5"/>
<circle cx="380" cy="140" r="17.5" fill="#2EF2FF" stroke="black" stroke-width="5"/>
<circle cx="380" cy="20" r="17.5" fill="#2EF2FF" stroke="black" stroke-width="5"/>
<circle cx="260" cy="20" r="17.5" fill="#2EF2FF" stroke="black" stroke-width="5"/>
<circle cx="140" cy="140" r="17.5" fill="#2EF2FF" stroke="black" stroke-width="5"/>
<circle cx="20" cy="140" r="17.5" fill="#2EF2FF" stroke="black" stroke-width="5"/>
<circle cx="140" cy="20" r="17.5" fill="#2EF2FF" stroke="black" stroke-width="5"/>
<circle cx="20" cy="20" r="17.5" fill="#2EF2FF" stroke="black" stroke-width="5"/>
<circle cx="140" cy="260" r="17.5" fill="#2EF2FF" stroke="black" stroke-width="5"/>
<circle cx="140" cy="380" r="17.5" fill="#2EF2FF" stroke="black" stroke-width="5"/>
<mask id="path-18-outside-1_1229_356" maskUnits="userSpaceOnUse" x="377" y="219" width="542" height="102" fill="black">
<rect fill="white" x="377" y="219" width="542" height="102"/>
<path d="M426.72 316H407.392V240.736H382.56V224.608H451.552V240.736H426.72V316ZM512.581 316L505.925 294.24H472.645L465.989 316H445.125L477.381 224.224H501.061L533.445 316H512.581ZM494.661 256.736C494.234 255.285 493.68 253.451 492.997 251.232C492.314 249.013 491.632 246.752 490.949 244.448C490.266 242.144 489.712 240.139 489.285 238.432C488.858 240.139 488.261 242.272 487.493 244.832C486.81 247.307 486.128 249.696 485.445 252C484.848 254.219 484.378 255.797 484.037 256.736L477.509 277.984H501.317L494.661 256.736ZM573.436 278.368L554.364 316H533.5L563.836 260.192V224.608H583.036V259.552L613.372 316H592.38L573.436 278.368ZM680.831 316L674.175 294.24H640.895L634.239 316H613.375L645.631 224.224H669.311L701.695 316H680.831ZM662.911 256.736C662.484 255.285 661.93 253.451 661.247 251.232C660.564 249.013 659.882 246.752 659.199 244.448C658.516 242.144 657.962 240.139 657.535 238.432C657.108 240.139 656.511 242.272 655.743 244.832C655.06 247.307 654.378 249.696 653.695 252C653.098 254.219 652.628 255.797 652.287 256.736L645.759 277.984H669.567L662.911 256.736ZM739.894 266.848C739.894 269.664 739.169 272.053 737.718 274.016C736.267 275.979 734.091 277.472 731.19 278.496C728.374 279.52 724.833 280.032 720.566 280.032C717.409 280.032 714.678 279.861 712.374 279.52C710.155 279.093 707.894 278.453 705.59 277.6V268.128C708.065 269.152 710.71 270.005 713.526 270.688C716.342 271.371 718.817 271.712 720.95 271.712C723.339 271.712 725.046 271.371 726.07 270.688C727.179 270.005 727.734 269.109 727.734 268C727.734 267.317 727.521 266.72 727.094 266.208C726.667 265.611 725.771 264.971 724.406 264.288C723.041 263.52 720.865 262.581 717.878 261.472C715.062 260.363 712.715 259.253 710.838 258.144C709.046 257.035 707.681 255.712 706.742 254.176C705.889 252.555 705.462 250.592 705.462 248.288C705.462 244.363 707.083 241.419 710.326 239.456C713.654 237.493 718.049 236.512 723.51 236.512C726.326 236.512 729.014 236.811 731.574 237.408C734.134 237.92 736.737 238.731 739.382 239.84L735.67 248.032C734.219 247.435 732.769 246.923 731.318 246.496C729.953 246.069 728.587 245.728 727.222 245.472C725.942 245.131 724.619 244.96 723.254 244.96C721.462 244.96 720.097 245.216 719.158 245.728C718.219 246.155 717.75 246.837 717.75 247.776C717.75 248.459 718.006 249.056 718.518 249.568C719.03 250.08 719.926 250.677 721.206 251.36C722.571 251.957 724.619 252.768 727.35 253.792C729.91 254.731 732.129 255.755 734.006 256.864C735.883 257.888 737.334 259.211 738.358 260.832C739.382 262.368 739.894 264.373 739.894 266.848ZM783.445 264.544C783.274 263.691 782.976 262.411 782.549 260.704C782.122 258.997 781.653 257.163 781.141 255.2C780.629 253.237 780.16 251.445 779.733 249.824C779.306 248.117 779.008 246.88 778.837 246.112H778.453C778.282 246.88 777.984 248.117 777.557 249.824C777.13 251.445 776.661 253.237 776.149 255.2C775.722 257.163 775.296 259.04 774.869 260.832C774.442 262.539 774.101 263.861 773.845 264.8L770.133 279.264H756.821L744.021 237.28H756.309L761.557 255.968C761.898 257.248 762.24 258.784 762.581 260.576C762.922 262.368 763.221 264.117 763.477 265.824C763.733 267.445 763.904 268.725 763.989 269.664H764.373C764.373 268.896 764.458 267.915 764.629 266.72C764.8 265.525 765.013 264.288 765.269 263.008C765.525 261.728 765.738 260.576 765.909 259.552C766.165 258.528 766.336 257.845 766.421 257.504L772.053 237.28H785.621L790.997 257.504C791.168 258.187 791.381 259.339 791.637 260.96C791.978 262.496 792.277 264.117 792.533 265.824C792.789 267.445 792.917 268.725 792.917 269.664H793.301C793.386 268.811 793.557 267.573 793.813 265.952C794.154 264.245 794.496 262.496 794.837 260.704C795.178 258.827 795.562 257.248 795.989 255.968L801.365 237.28H813.525L800.469 279.264H787.029L783.445 264.544ZM839.338 236.512C845.397 236.512 850.047 237.749 853.29 240.224C856.618 242.613 858.282 246.325 858.282 251.36V279.264H849.578L847.146 273.632H846.89C845.61 275.083 844.287 276.32 842.922 277.344C841.557 278.283 839.978 278.965 838.186 279.392C836.479 279.819 834.346 280.032 831.786 280.032C829.141 280.032 826.751 279.563 824.618 278.624C822.485 277.685 820.778 276.235 819.498 274.272C818.303 272.309 817.706 269.792 817.706 266.72C817.706 262.283 819.37 258.997 822.698 256.864C826.111 254.731 831.231 253.579 838.058 253.408L845.994 253.152V251.36C845.994 249.141 845.354 247.52 844.074 246.496C842.794 245.472 841.045 244.96 838.826 244.96C836.693 244.96 834.559 245.259 832.426 245.856C830.293 246.368 828.159 247.093 826.026 248.032L821.93 240.224C824.405 239.115 827.135 238.219 830.122 237.536C833.109 236.853 836.181 236.512 839.338 236.512ZM841.13 259.936C837.119 260.107 834.346 260.789 832.81 261.984C831.274 263.179 830.506 264.8 830.506 266.848C830.506 268.555 831.061 269.792 832.17 270.56C833.279 271.328 834.73 271.712 836.522 271.712C839.167 271.712 841.386 270.987 843.178 269.536C845.055 268.085 845.994 265.995 845.994 263.264V259.808L841.13 259.936ZM896.244 236.512C901.364 236.512 905.503 238.347 908.66 242.016C911.817 245.685 913.396 251.104 913.396 258.272C913.396 262.965 912.628 266.933 911.092 270.176C909.641 273.419 907.593 275.893 904.948 277.6C902.388 279.221 899.401 280.032 895.988 280.032C893.769 280.032 891.849 279.776 890.228 279.264C888.692 278.752 887.369 278.112 886.26 277.344C885.151 276.491 884.212 275.595 883.444 274.656H882.676C882.932 275.68 883.103 276.704 883.188 277.728C883.359 278.752 883.444 279.776 883.444 280.8V297.696H871.028V237.28H881.012L882.804 242.784H883.444C884.212 241.675 885.151 240.651 886.26 239.712C887.455 238.773 888.863 238.005 890.484 237.408C892.191 236.811 894.111 236.512 896.244 236.512ZM892.276 245.728C890.143 245.728 888.436 246.155 887.156 247.008C885.876 247.776 884.937 249.013 884.34 250.72C883.743 252.341 883.444 254.389 883.444 256.864V258.144C883.444 260.875 883.7 263.179 884.212 265.056C884.724 266.933 885.62 268.341 886.9 269.28C888.265 270.219 890.1 270.688 892.404 270.688C894.367 270.688 895.945 270.219 897.14 269.28C898.335 268.341 899.231 266.933 899.828 265.056C900.425 263.093 900.724 260.747 900.724 258.016C900.724 253.92 900.041 250.848 898.676 248.8C897.311 246.752 895.177 245.728 892.276 245.728Z"/>
</mask>
<path d="M426.72 316H407.392V240.736H382.56V224.608H451.552V240.736H426.72V316ZM512.581 316L505.925 294.24H472.645L465.989 316H445.125L477.381 224.224H501.061L533.445 316H512.581ZM494.661 256.736C494.234 255.285 493.68 253.451 492.997 251.232C492.314 249.013 491.632 246.752 490.949 244.448C490.266 242.144 489.712 240.139 489.285 238.432C488.858 240.139 488.261 242.272 487.493 244.832C486.81 247.307 486.128 249.696 485.445 252C484.848 254.219 484.378 255.797 484.037 256.736L477.509 277.984H501.317L494.661 256.736ZM573.436 278.368L554.364 316H533.5L563.836 260.192V224.608H583.036V259.552L613.372 316H592.38L573.436 278.368ZM680.831 316L674.175 294.24H640.895L634.239 316H613.375L645.631 224.224H669.311L701.695 316H680.831ZM662.911 256.736C662.484 255.285 661.93 253.451 661.247 251.232C660.564 249.013 659.882 246.752 659.199 244.448C658.516 242.144 657.962 240.139 657.535 238.432C657.108 240.139 656.511 242.272 655.743 244.832C655.06 247.307 654.378 249.696 653.695 252C653.098 254.219 652.628 255.797 652.287 256.736L645.759 277.984H669.567L662.911 256.736ZM739.894 266.848C739.894 269.664 739.169 272.053 737.718 274.016C736.267 275.979 734.091 277.472 731.19 278.496C728.374 279.52 724.833 280.032 720.566 280.032C717.409 280.032 714.678 279.861 712.374 279.52C710.155 279.093 707.894 278.453 705.59 277.6V268.128C708.065 269.152 710.71 270.005 713.526 270.688C716.342 271.371 718.817 271.712 720.95 271.712C723.339 271.712 725.046 271.371 726.07 270.688C727.179 270.005 727.734 269.109 727.734 268C727.734 267.317 727.521 266.72 727.094 266.208C726.667 265.611 725.771 264.971 724.406 264.288C723.041 263.52 720.865 262.581 717.878 261.472C715.062 260.363 712.715 259.253 710.838 258.144C709.046 257.035 707.681 255.712 706.742 254.176C705.889 252.555 705.462 250.592 705.462 248.288C705.462 244.363 707.083 241.419 710.326 239.456C713.654 237.493 718.049 236.512 723.51 236.512C726.326 236.512 729.014 236.811 731.574 237.408C734.134 237.92 736.737 238.731 739.382 239.84L735.67 248.032C734.219 247.435 732.769 246.923 731.318 246.496C729.953 246.069 728.587 245.728 727.222 245.472C725.942 245.131 724.619 244.96 723.254 244.96C721.462 244.96 720.097 245.216 719.158 245.728C718.219 246.155 717.75 246.837 717.75 247.776C717.75 248.459 718.006 249.056 718.518 249.568C719.03 250.08 719.926 250.677 721.206 251.36C722.571 251.957 724.619 252.768 727.35 253.792C729.91 254.731 732.129 255.755 734.006 256.864C735.883 257.888 737.334 259.211 738.358 260.832C739.382 262.368 739.894 264.373 739.894 266.848ZM783.445 264.544C783.274 263.691 782.976 262.411 782.549 260.704C782.122 258.997 781.653 257.163 781.141 255.2C780.629 253.237 780.16 251.445 779.733 249.824C779.306 248.117 779.008 246.88 778.837 246.112H778.453C778.282 246.88 777.984 248.117 777.557 249.824C777.13 251.445 776.661 253.237 776.149 255.2C775.722 257.163 775.296 259.04 774.869 260.832C774.442 262.539 774.101 263.861 773.845 264.8L770.133 279.264H756.821L744.021 237.28H756.309L761.557 255.968C761.898 257.248 762.24 258.784 762.581 260.576C762.922 262.368 763.221 264.117 763.477 265.824C763.733 267.445 763.904 268.725 763.989 269.664H764.373C764.373 268.896 764.458 267.915 764.629 266.72C764.8 265.525 765.013 264.288 765.269 263.008C765.525 261.728 765.738 260.576 765.909 259.552C766.165 258.528 766.336 257.845 766.421 257.504L772.053 237.28H785.621L790.997 257.504C791.168 258.187 791.381 259.339 791.637 260.96C791.978 262.496 792.277 264.117 792.533 265.824C792.789 267.445 792.917 268.725 792.917 269.664H793.301C793.386 268.811 793.557 267.573 793.813 265.952C794.154 264.245 794.496 262.496 794.837 260.704C795.178 258.827 795.562 257.248 795.989 255.968L801.365 237.28H813.525L800.469 279.264H787.029L783.445 264.544ZM839.338 236.512C845.397 236.512 850.047 237.749 853.29 240.224C856.618 242.613 858.282 246.325 858.282 251.36V279.264H849.578L847.146 273.632H846.89C845.61 275.083 844.287 276.32 842.922 277.344C841.557 278.283 839.978 278.965 838.186 279.392C836.479 279.819 834.346 280.032 831.786 280.032C829.141 280.032 826.751 279.563 824.618 278.624C822.485 277.685 820.778 276.235 819.498 274.272C818.303 272.309 817.706 269.792 817.706 266.72C817.706 262.283 819.37 258.997 822.698 256.864C826.111 254.731 831.231 253.579 838.058 253.408L845.994 253.152V251.36C845.994 249.141 845.354 247.52 844.074 246.496C842.794 245.472 841.045 244.96 838.826 244.96C836.693 244.96 834.559 245.259 832.426 245.856C830.293 246.368 828.159 247.093 826.026 248.032L821.93 240.224C824.405 239.115 827.135 238.219 830.122 237.536C833.109 236.853 836.181 236.512 839.338 236.512ZM841.13 259.936C837.119 260.107 834.346 260.789 832.81 261.984C831.274 263.179 830.506 264.8 830.506 266.848C830.506 268.555 831.061 269.792 832.17 270.56C833.279 271.328 834.73 271.712 836.522 271.712C839.167 271.712 841.386 270.987 843.178 269.536C845.055 268.085 845.994 265.995 845.994 263.264V259.808L841.13 259.936ZM896.244 236.512C901.364 236.512 905.503 238.347 908.66 242.016C911.817 245.685 913.396 251.104 913.396 258.272C913.396 262.965 912.628 266.933 911.092 270.176C909.641 273.419 907.593 275.893 904.948 277.6C902.388 279.221 899.401 280.032 895.988 280.032C893.769 280.032 891.849 279.776 890.228 279.264C888.692 278.752 887.369 278.112 886.26 277.344C885.151 276.491 884.212 275.595 883.444 274.656H882.676C882.932 275.68 883.103 276.704 883.188 277.728C883.359 278.752 883.444 279.776 883.444 280.8V297.696H871.028V237.28H881.012L882.804 242.784H883.444C884.212 241.675 885.151 240.651 886.26 239.712C887.455 238.773 888.863 238.005 890.484 237.408C892.191 236.811 894.111 236.512 896.244 236.512ZM892.276 245.728C890.143 245.728 888.436 246.155 887.156 247.008C885.876 247.776 884.937 249.013 884.34 250.72C883.743 252.341 883.444 254.389 883.444 256.864V258.144C883.444 260.875 883.7 263.179 884.212 265.056C884.724 266.933 885.62 268.341 886.9 269.28C888.265 270.219 890.1 270.688 892.404 270.688C894.367 270.688 895.945 270.219 897.14 269.28C898.335 268.341 899.231 266.933 899.828 265.056C900.425 263.093 900.724 260.747 900.724 258.016C900.724 253.92 900.041 250.848 898.676 248.8C897.311 246.752 895.177 245.728 892.276 245.728Z" fill="#2EF2FF"/>
<path d="M426.72 316V321H431.72V316H426.72ZM407.392 316H402.392V321H407.392V316ZM407.392 240.736H412.392V235.736H407.392V240.736ZM382.56 240.736H377.56V245.736H382.56V240.736ZM382.56 224.608V219.608H377.56V224.608H382.56ZM451.552 224.608H456.552V219.608H451.552V224.608ZM451.552 240.736V245.736H456.552V240.736H451.552ZM426.72 240.736V235.736H421.72V240.736H426.72ZM426.72 311H407.392V321H426.72V311ZM412.392 316V240.736H402.392V316H412.392ZM407.392 235.736H382.56V245.736H407.392V235.736ZM387.56 240.736V224.608H377.56V240.736H387.56ZM382.56 229.608H451.552V219.608H382.56V229.608ZM446.552 224.608V240.736H456.552V224.608H446.552ZM451.552 235.736H426.72V245.736H451.552V235.736ZM421.72 240.736V316H431.72V240.736H421.72ZM512.581 316L507.8 317.463L508.882 321H512.581V316ZM505.925 294.24L510.706 292.777L509.624 289.24H505.925V294.24ZM472.645 294.24V289.24H468.946L467.864 292.777L472.645 294.24ZM465.989 316V321H469.688L470.77 317.463L465.989 316ZM445.125 316L440.408 314.342L438.068 321H445.125V316ZM477.381 224.224V219.224H473.838L472.664 222.566L477.381 224.224ZM501.061 224.224L505.776 222.56L504.599 219.224H501.061V224.224ZM533.445 316V321H540.511L538.16 314.336L533.445 316ZM494.661 256.736L489.864 258.147L489.877 258.189L489.89 258.231L494.661 256.736ZM492.997 251.232L488.218 252.702L488.218 252.702L492.997 251.232ZM490.949 244.448L486.155 245.868L486.155 245.868L490.949 244.448ZM489.285 238.432L494.136 237.219L484.434 237.219L489.285 238.432ZM487.493 244.832L482.704 243.395L482.688 243.449L482.673 243.502L487.493 244.832ZM485.445 252L480.651 250.58L480.633 250.64L480.617 250.7L485.445 252ZM484.037 256.736L479.338 255.027L479.295 255.146L479.257 255.268L484.037 256.736ZM477.509 277.984L472.729 276.516L470.742 282.984H477.509V277.984ZM501.317 277.984V282.984H508.123L506.088 276.489L501.317 277.984ZM517.362 314.537L510.706 292.777L501.144 295.703L507.8 317.463L517.362 314.537ZM505.925 289.24H472.645V299.24H505.925V289.24ZM467.864 292.777L461.208 314.537L470.77 317.463L477.426 295.703L467.864 292.777ZM465.989 311H445.125V321H465.989V311ZM449.842 317.658L482.098 225.882L472.664 222.566L440.408 314.342L449.842 317.658ZM477.381 229.224H501.061V219.224H477.381V229.224ZM496.346 225.888L528.73 317.664L538.16 314.336L505.776 222.56L496.346 225.888ZM533.445 311H512.581V321H533.445V311ZM499.458 255.325C499.023 253.847 498.462 251.991 497.776 249.762L488.218 252.702C488.898 254.911 489.446 256.724 489.864 258.147L499.458 255.325ZM497.776 249.762C497.099 247.56 496.421 245.315 495.743 243.028L486.155 245.868C486.842 248.189 487.53 250.467 488.218 252.702L497.776 249.762ZM495.743 243.028C495.074 240.769 494.54 238.836 494.136 237.219L484.434 239.645C484.883 241.441 485.459 243.519 486.155 245.868L495.743 243.028ZM484.434 237.219C484.033 238.823 483.46 240.876 482.704 243.395L492.282 246.269C493.062 243.668 493.683 241.454 494.136 239.645L484.434 237.219ZM482.673 243.502C481.998 245.949 481.324 248.308 480.651 250.58L490.239 253.42C490.931 251.084 491.622 248.665 492.313 246.162L482.673 243.502ZM480.617 250.7C480.022 252.911 479.6 254.308 479.338 255.027L488.736 258.445C489.157 257.287 489.674 255.526 490.273 253.3L480.617 250.7ZM479.257 255.268L472.729 276.516L482.289 279.452L488.817 258.204L479.257 255.268ZM477.509 282.984H501.317V272.984H477.509V282.984ZM506.088 276.489L499.432 255.241L489.89 258.231L496.546 279.479L506.088 276.489ZM573.436 278.368L577.902 276.12L573.451 267.278L568.976 276.108L573.436 278.368ZM554.364 316V321H557.435L558.824 318.26L554.364 316ZM533.5 316L529.107 313.612L525.091 321H533.5V316ZM563.836 260.192L568.229 262.58L568.836 261.463V260.192H563.836ZM563.836 224.608V219.608H558.836V224.608H563.836ZM583.036 224.608H588.036V219.608H583.036V224.608ZM583.036 259.552H578.036V260.81L578.632 261.919L583.036 259.552ZM613.372 316V321H621.735L617.776 313.633L613.372 316ZM592.38 316L587.914 318.248L589.299 321H592.38V316ZM568.976 276.108L549.904 313.74L558.824 318.26L577.896 280.628L568.976 276.108ZM554.364 311H533.5V321H554.364V311ZM537.893 318.388L568.229 262.58L559.443 257.804L529.107 313.612L537.893 318.388ZM568.836 260.192V224.608H558.836V260.192H568.836ZM563.836 229.608H583.036V219.608H563.836V229.608ZM578.036 224.608V259.552H588.036V224.608H578.036ZM578.632 261.919L608.968 318.367L617.776 313.633L587.44 257.185L578.632 261.919ZM613.372 311H592.38V321H613.372V311ZM596.846 313.752L577.902 276.12L568.97 280.616L587.914 318.248L596.846 313.752ZM680.831 316L676.05 317.463L677.132 321H680.831V316ZM674.175 294.24L678.956 292.777L677.874 289.24H674.175V294.24ZM640.895 294.24V289.24H637.196L636.114 292.777L640.895 294.24ZM634.239 316V321H637.938L639.02 317.463L634.239 316ZM613.375 316L608.658 314.342L606.318 321H613.375V316ZM645.631 224.224V219.224H642.088L640.914 222.566L645.631 224.224ZM669.311 224.224L674.026 222.56L672.849 219.224H669.311V224.224ZM701.695 316V321H708.761L706.41 314.336L701.695 316ZM662.911 256.736L658.114 258.147L658.127 258.189L658.14 258.231L662.911 256.736ZM661.247 251.232L656.468 252.702L656.468 252.702L661.247 251.232ZM659.199 244.448L654.405 245.868L654.405 245.868L659.199 244.448ZM657.535 238.432L662.386 237.219L652.684 237.219L657.535 238.432ZM655.743 244.832L650.954 243.395L650.938 243.449L650.923 243.502L655.743 244.832ZM653.695 252L648.901 250.58L648.883 250.64L648.867 250.7L653.695 252ZM652.287 256.736L647.588 255.027L647.545 255.146L647.507 255.268L652.287 256.736ZM645.759 277.984L640.979 276.516L638.992 282.984H645.759V277.984ZM669.567 277.984V282.984H676.373L674.338 276.489L669.567 277.984ZM685.612 314.537L678.956 292.777L669.394 295.703L676.05 317.463L685.612 314.537ZM674.175 289.24H640.895V299.24H674.175V289.24ZM636.114 292.777L629.458 314.537L639.02 317.463L645.676 295.703L636.114 292.777ZM634.239 311H613.375V321H634.239V311ZM618.092 317.658L650.348 225.882L640.914 222.566L608.658 314.342L618.092 317.658ZM645.631 229.224H669.311V219.224H645.631V229.224ZM664.596 225.888L696.98 317.664L706.41 314.336L674.026 222.56L664.596 225.888ZM701.695 311H680.831V321H701.695V311ZM667.708 255.325C667.273 253.847 666.712 251.991 666.026 249.762L656.468 252.702C657.148 254.911 657.696 256.724 658.114 258.147L667.708 255.325ZM666.026 249.762C665.349 247.56 664.671 245.315 663.993 243.028L654.405 245.868C655.092 248.189 655.78 250.467 656.468 252.702L666.026 249.762ZM663.993 243.028C663.324 240.769 662.79 238.836 662.386 237.219L652.684 239.645C653.133 241.441 653.709 243.519 654.405 245.868L663.993 243.028ZM652.684 237.219C652.283 238.823 651.71 240.876 650.954 243.395L660.532 246.269C661.312 243.668 661.933 241.454 662.386 239.645L652.684 237.219ZM650.923 243.502C650.248 245.949 649.574 248.308 648.901 250.58L658.489 253.42C659.181 251.084 659.872 248.665 660.563 246.162L650.923 243.502ZM648.867 250.7C648.272 252.911 647.85 254.308 647.588 255.027L656.986 258.445C657.407 257.287 657.924 255.526 658.523 253.3L648.867 250.7ZM647.507 255.268L640.979 276.516L650.539 279.452L657.067 258.204L647.507 255.268ZM645.759 282.984H669.567V272.984H645.759V282.984ZM674.338 276.489L667.682 255.241L658.14 258.231L664.796 279.479L674.338 276.489ZM737.718 274.016L741.739 276.988L741.739 276.988L737.718 274.016ZM731.19 278.496L729.526 273.781L729.504 273.789L729.481 273.797L731.19 278.496ZM712.374 279.52L711.43 284.43L711.535 284.45L711.641 284.466L712.374 279.52ZM705.59 277.6H700.59V281.08L703.853 282.289L705.59 277.6ZM705.59 268.128L707.502 263.508L700.59 260.648V268.128H705.59ZM713.526 270.688L712.348 275.547L712.348 275.547L713.526 270.688ZM726.07 270.688L723.45 266.43L723.372 266.477L723.297 266.528L726.07 270.688ZM727.094 266.208L723.025 269.114L723.134 269.266L723.253 269.409L727.094 266.208ZM724.406 264.288L721.955 268.646L722.061 268.706L722.17 268.76L724.406 264.288ZM717.878 261.472L716.045 266.124L716.091 266.142L716.137 266.159L717.878 261.472ZM710.838 258.144L708.206 262.395L708.25 262.422L708.294 262.449L710.838 258.144ZM706.742 254.176L702.317 256.505L702.392 256.647L702.476 256.783L706.742 254.176ZM710.326 239.456L707.786 235.149L707.761 235.164L707.737 235.178L710.326 239.456ZM731.574 237.408L730.438 242.277L730.515 242.295L730.593 242.311L731.574 237.408ZM739.382 239.84L743.936 241.904L746.059 237.218L741.316 235.229L739.382 239.84ZM735.67 248.032L733.766 252.655L738.231 254.494L740.224 250.096L735.67 248.032ZM731.318 246.496L729.827 251.268L729.867 251.281L729.907 251.293L731.318 246.496ZM727.222 245.472L725.934 250.303L726.116 250.352L726.301 250.386L727.222 245.472ZM719.158 245.728L721.227 250.28L721.393 250.205L721.552 250.117L719.158 245.728ZM718.518 249.568L722.054 246.032L722.054 246.032L718.518 249.568ZM721.206 251.36L718.853 255.772L719.024 255.863L719.202 255.941L721.206 251.36ZM727.35 253.792L725.594 258.474L725.612 258.48L725.629 258.486L727.35 253.792ZM734.006 256.864L731.462 261.169L731.536 261.212L731.612 261.253L734.006 256.864ZM738.358 260.832L734.131 263.502L734.164 263.554L734.198 263.605L738.358 260.832ZM734.894 266.848C734.894 268.765 734.417 270.07 733.697 271.044L741.739 276.988C743.92 274.037 744.894 270.563 744.894 266.848H734.894ZM733.697 271.044C732.978 272.017 731.731 273.003 729.526 273.781L732.854 283.211C736.452 281.941 739.556 279.941 741.739 276.988L733.697 271.044ZM729.481 273.797C727.392 274.557 724.477 275.032 720.566 275.032V285.032C725.189 285.032 729.356 284.483 732.899 283.195L729.481 273.797ZM720.566 275.032C717.574 275.032 715.1 274.869 713.107 274.574L711.641 284.466C714.256 284.853 717.243 285.032 720.566 285.032V275.032ZM713.318 274.61C711.392 274.239 709.395 273.677 707.327 272.911L703.853 282.289C706.393 283.229 708.919 283.947 711.43 284.43L713.318 274.61ZM710.59 277.6V268.128H700.59V277.6H710.59ZM703.678 272.748C706.409 273.878 709.302 274.809 712.348 275.547L714.704 265.829C712.118 265.202 709.72 264.426 707.502 263.508L703.678 272.748ZM712.348 275.547C715.422 276.293 718.307 276.712 720.95 276.712V266.712C719.326 266.712 717.262 266.449 714.704 265.829L712.348 275.547ZM720.95 276.712C723.547 276.712 726.528 276.392 728.843 274.848L723.297 266.528C723.503 266.39 723.5 266.461 723.041 266.553C722.605 266.64 721.928 266.712 720.95 266.712V276.712ZM728.69 274.946C730.976 273.54 732.734 271.173 732.734 268H722.734C722.734 267.676 722.828 267.257 723.067 266.872C723.284 266.521 723.495 266.402 723.45 266.43L728.69 274.946ZM732.734 268C732.734 266.179 732.13 264.441 730.935 263.007L723.253 269.409C723.109 269.237 722.966 269.004 722.865 268.722C722.765 268.441 722.734 268.188 722.734 268H732.734ZM731.163 263.302C729.976 261.641 728.111 260.55 726.642 259.816L722.17 268.76C722.701 269.026 723.024 269.226 723.196 269.349C723.278 269.407 723.295 269.427 723.27 269.403C723.247 269.382 723.15 269.288 723.025 269.114L731.163 263.302ZM726.857 259.93C725.135 258.961 722.654 257.912 719.619 256.785L716.137 266.159C719.075 267.25 720.947 268.079 721.955 268.646L726.857 259.93ZM719.711 256.82C717.054 255.773 714.963 254.774 713.382 253.839L708.294 262.449C710.467 263.733 713.07 264.952 716.045 266.124L719.711 256.82ZM713.47 253.893C712.23 253.125 711.474 252.331 711.008 251.569L702.476 256.783C703.887 259.093 705.862 260.944 708.206 262.395L713.47 253.893ZM711.167 251.847C710.776 251.105 710.462 249.985 710.462 248.288H700.462C700.462 251.199 701.001 254.004 702.317 256.505L711.167 251.847ZM710.462 248.288C710.462 246.036 711.233 244.752 712.915 243.733L707.737 235.178C702.934 238.086 700.462 242.689 700.462 248.288H710.462ZM712.866 243.763C715.17 242.404 718.592 241.512 723.51 241.512V231.512C717.506 231.512 712.138 232.583 707.786 235.149L712.866 243.763ZM723.51 241.512C725.971 241.512 728.276 241.773 730.438 242.277L732.71 232.539C729.752 231.849 726.681 231.512 723.51 231.512V241.512ZM730.593 242.311C732.797 242.752 735.08 243.458 737.448 244.451L741.316 235.229C738.393 234.003 735.471 233.088 732.555 232.505L730.593 242.311ZM734.828 237.776L731.116 245.968L740.224 250.096L743.936 241.904L734.828 237.776ZM737.574 243.409C735.968 242.747 734.353 242.177 732.729 241.699L729.907 251.293C731.185 251.669 732.471 252.122 733.766 252.655L737.574 243.409ZM732.809 241.724C731.263 241.24 729.707 240.851 728.143 240.558L726.301 250.386C727.468 250.605 728.643 250.898 729.827 251.268L732.809 241.724ZM728.51 240.641C726.797 240.184 725.041 239.96 723.254 239.96V249.96C724.198 249.96 725.087 250.077 725.934 250.303L728.51 240.641ZM723.254 239.96C721.123 239.96 718.776 240.241 716.764 241.339L721.552 250.117C721.447 250.175 721.495 250.125 721.807 250.066C722.114 250.009 722.583 249.96 723.254 249.96V239.96ZM717.089 241.176C715.993 241.674 714.843 242.474 713.982 243.727C713.1 245.01 712.75 246.435 712.75 247.776H722.75C722.75 248.179 722.635 248.793 722.222 249.393C721.83 249.963 721.384 250.208 721.227 250.28L717.089 241.176ZM712.75 247.776C712.75 249.871 713.596 251.717 714.982 253.104L722.054 246.032C722.196 246.175 722.388 246.417 722.538 246.766C722.69 247.121 722.75 247.475 722.75 247.776H712.75ZM714.982 253.104C716.04 254.161 717.482 255.041 718.853 255.772L723.559 246.948C723.017 246.659 722.622 246.423 722.348 246.24C722.055 246.045 721.994 245.973 722.054 246.032L714.982 253.104ZM719.202 255.941C720.694 256.593 722.843 257.442 725.594 258.474L729.106 249.11C726.396 248.094 724.449 247.321 723.21 246.779L719.202 255.941ZM725.629 258.486C727.971 259.345 729.902 260.247 731.462 261.169L736.55 252.559C734.355 251.263 731.849 250.116 729.071 249.098L725.629 258.486ZM731.612 261.253C732.829 261.918 733.612 262.681 734.131 263.502L742.585 258.162C741.056 255.741 738.937 253.858 736.4 252.475L731.612 261.253ZM734.198 263.605C734.517 264.084 734.894 265.032 734.894 266.848H744.894C744.894 263.715 744.247 260.652 742.518 258.058L734.198 263.605ZM783.445 264.544L778.542 265.525L778.562 265.626L778.587 265.727L783.445 264.544ZM782.549 260.704L787.4 259.491L787.4 259.491L782.549 260.704ZM781.141 255.2L785.979 253.938L785.979 253.938L781.141 255.2ZM779.733 249.824L774.882 251.037L774.89 251.067L774.898 251.096L779.733 249.824ZM778.837 246.112L783.718 245.027L782.848 241.112H778.837V246.112ZM778.453 246.112V241.112H774.442L773.572 245.027L778.453 246.112ZM777.557 249.824L782.392 251.096L782.4 251.067L782.408 251.037L777.557 249.824ZM776.149 255.2L771.311 253.938L771.285 254.037L771.263 254.138L776.149 255.2ZM774.869 260.832L779.72 262.045L779.727 262.017L779.733 261.99L774.869 260.832ZM773.845 264.8L769.021 263.484L769.011 263.521L769.002 263.557L773.845 264.8ZM770.133 279.264V284.264H774.012L774.976 280.507L770.133 279.264ZM756.821 279.264L752.038 280.722L753.118 284.264H756.821V279.264ZM744.021 237.28V232.28H737.269L739.238 238.738L744.021 237.28ZM756.309 237.28L761.123 235.928L760.098 232.28H756.309V237.28ZM761.557 255.968L766.388 254.68L766.38 254.648L766.371 254.616L761.557 255.968ZM762.581 260.576L767.493 259.64L767.493 259.64L762.581 260.576ZM763.477 265.824L758.532 266.566L758.535 266.585L758.538 266.604L763.477 265.824ZM763.989 269.664L759.01 270.117L759.423 274.664H763.989V269.664ZM764.373 269.664V274.664H769.373V269.664H764.373ZM764.629 266.72L769.579 267.427L769.579 267.427L764.629 266.72ZM765.269 263.008L760.366 262.027L760.366 262.027L765.269 263.008ZM765.909 259.552L761.058 258.339L761.01 258.533L760.977 258.73L765.909 259.552ZM766.421 257.504L761.604 256.163L761.586 256.227L761.57 256.291L766.421 257.504ZM772.053 237.28V232.28H768.255L767.236 235.939L772.053 237.28ZM785.621 237.28L790.453 235.995L789.466 232.28H785.621V237.28ZM790.997 257.504L795.848 256.291L795.839 256.255L795.829 256.219L790.997 257.504ZM791.637 260.96L786.698 261.74L786.722 261.893L786.756 262.045L791.637 260.96ZM792.533 265.824L787.588 266.566L787.591 266.585L787.594 266.604L792.533 265.824ZM792.917 269.664H787.917V274.664H792.917V269.664ZM793.301 269.664V274.664H797.826L798.276 270.162L793.301 269.664ZM793.813 265.952L788.91 264.971L788.89 265.071L788.874 265.172L793.813 265.952ZM794.837 260.704L799.749 261.64L799.753 261.619L799.756 261.598L794.837 260.704ZM795.989 255.968L800.732 257.549L800.765 257.45L800.794 257.35L795.989 255.968ZM801.365 237.28V232.28H797.601L796.56 235.898L801.365 237.28ZM813.525 237.28L818.299 238.765L820.316 232.28H813.525V237.28ZM800.469 279.264V284.264H804.15L805.243 280.749L800.469 279.264ZM787.029 279.264L782.171 280.447L783.1 284.264H787.029V279.264ZM788.348 263.563C788.153 262.589 787.83 261.214 787.4 259.491L777.698 261.917C778.121 263.607 778.396 264.793 778.542 265.525L788.348 263.563ZM787.4 259.491C786.968 257.766 786.495 255.915 785.979 253.938L776.303 256.462C776.811 258.411 777.276 260.229 777.698 261.917L787.4 259.491ZM785.979 253.938C785.466 251.972 784.996 250.177 784.568 248.552L774.898 251.096C775.323 252.714 775.792 254.502 776.303 256.462L785.979 253.938ZM784.584 248.611C784.158 246.908 783.873 245.726 783.718 245.027L773.956 247.197C774.142 248.034 774.455 249.326 774.882 251.037L784.584 248.611ZM778.837 241.112H778.453V251.112H778.837V241.112ZM773.572 245.027C773.417 245.726 773.132 246.908 772.706 248.611L782.408 251.037C782.835 249.326 783.148 248.034 783.334 247.197L773.572 245.027ZM772.722 248.552C772.294 250.177 771.824 251.972 771.311 253.938L780.987 256.462C781.498 254.502 781.967 252.714 782.392 251.096L772.722 248.552ZM771.263 254.138C770.843 256.071 770.423 257.917 770.005 259.674L779.733 261.99C780.168 260.163 780.602 258.254 781.035 256.262L771.263 254.138ZM770.018 259.619C769.595 261.314 769.263 262.597 769.021 263.484L778.669 266.116C778.939 265.126 779.29 263.763 779.72 262.045L770.018 259.619ZM769.002 263.557L765.29 278.021L774.976 280.507L778.688 266.043L769.002 263.557ZM770.133 274.264H756.821V284.264H770.133V274.264ZM761.604 277.806L748.804 235.822L739.238 238.738L752.038 280.722L761.604 277.806ZM744.021 242.28H756.309V232.28H744.021V242.28ZM751.495 238.632L756.743 257.32L766.371 254.616L761.123 235.928L751.495 238.632ZM756.726 257.256C757.027 258.386 757.343 259.797 757.669 261.512L767.493 259.64C767.137 257.771 766.77 256.11 766.388 254.68L756.726 257.256ZM757.669 261.512C757.999 263.243 758.287 264.927 758.532 266.566L768.422 265.082C768.155 263.307 767.846 261.493 767.493 259.64L757.669 261.512ZM758.538 266.604C758.788 268.183 758.939 269.339 759.01 270.117L768.968 269.211C768.869 268.112 768.678 266.707 768.416 265.044L758.538 266.604ZM763.989 274.664H764.373V264.664H763.989V274.664ZM769.373 269.664C769.373 269.226 769.425 268.504 769.579 267.427L759.679 266.013C759.492 267.326 759.373 268.566 759.373 269.664H769.373ZM769.579 267.427C769.735 266.331 769.933 265.185 770.172 263.989L760.366 262.027C760.093 263.391 759.864 264.72 759.679 266.013L769.579 267.427ZM770.172 263.989C770.436 262.669 770.66 261.462 770.841 260.374L760.977 258.73C760.817 259.69 760.614 260.787 760.366 262.027L770.172 263.989ZM770.76 260.765C771.016 259.741 771.186 259.058 771.272 258.717L761.57 256.291C761.485 256.633 761.314 257.315 761.058 258.339L770.76 260.765ZM771.238 258.845L776.87 238.621L767.236 235.939L761.604 256.163L771.238 258.845ZM772.053 242.28H785.621V232.28H772.053V242.28ZM780.789 238.565L786.165 258.789L795.829 256.219L790.453 235.995L780.789 238.565ZM786.146 258.717C786.258 259.165 786.443 260.124 786.698 261.74L796.576 260.18C796.319 258.553 796.077 257.208 795.848 256.291L786.146 258.717ZM786.756 262.045C787.07 263.457 787.348 264.963 787.588 266.566L797.478 265.082C797.206 263.271 796.887 261.535 796.518 259.875L786.756 262.045ZM787.594 266.604C787.835 268.128 787.917 269.11 787.917 269.664H797.917C797.917 268.341 797.743 266.763 797.472 265.044L787.594 266.604ZM792.917 274.664H793.301V264.664H792.917V274.664ZM798.276 270.162C798.347 269.453 798.5 268.327 798.752 266.732L788.874 265.172C788.614 266.819 788.426 268.169 788.326 269.166L798.276 270.162ZM798.716 266.933C799.06 265.21 799.405 263.446 799.749 261.64L789.925 259.768C789.587 261.546 789.248 263.28 788.91 264.971L798.716 266.933ZM799.756 261.598C800.071 259.867 800.404 258.534 800.732 257.549L791.246 254.387C790.721 255.962 790.285 257.787 789.918 259.81L799.756 261.598ZM800.794 257.35L806.17 238.662L796.56 235.898L791.184 254.586L800.794 257.35ZM801.365 242.28H813.525V232.28H801.365V242.28ZM808.751 235.795L795.695 277.779L805.243 280.749L818.299 238.765L808.751 235.795ZM800.469 274.264H787.029V284.264H800.469V274.264ZM791.887 278.081L788.303 263.361L778.587 265.727L782.171 280.447L791.887 278.081ZM853.29 240.224L850.257 244.199L850.315 244.243L850.374 244.286L853.29 240.224ZM858.282 279.264V284.264H863.282V279.264H858.282ZM849.578 279.264L844.988 281.246L846.291 284.264H849.578V279.264ZM847.146 273.632L851.736 271.65L850.433 268.632H847.146V273.632ZM846.89 273.632V268.632H844.634L843.141 270.324L846.89 273.632ZM842.922 277.344L845.755 281.464L845.84 281.406L845.922 281.344L842.922 277.344ZM838.186 279.392L837.028 274.528L837.001 274.534L836.973 274.541L838.186 279.392ZM824.618 278.624L826.632 274.047L826.632 274.047L824.618 278.624ZM819.498 274.272L815.227 276.872L815.267 276.938L815.31 277.003L819.498 274.272ZM822.698 256.864L820.048 252.624L820.024 252.639L820 252.655L822.698 256.864ZM838.058 253.408L838.183 258.406L838.201 258.406L838.219 258.405L838.058 253.408ZM845.994 253.152L846.155 258.149L850.994 257.993V253.152H845.994ZM844.074 246.496L847.197 242.592L847.197 242.592L844.074 246.496ZM832.426 245.856L833.593 250.718L833.684 250.696L833.774 250.671L832.426 245.856ZM826.026 248.032L821.598 250.355L823.767 254.489L828.04 252.609L826.026 248.032ZM821.93 240.224L819.885 235.661L815.032 237.837L817.502 242.547L821.93 240.224ZM841.13 259.936L840.998 254.938L840.958 254.939L840.917 254.941L841.13 259.936ZM832.81 261.984L835.88 265.931L835.88 265.931L832.81 261.984ZM832.17 270.56L829.324 274.671L829.324 274.671L832.17 270.56ZM843.178 269.536L840.121 265.58L840.076 265.614L840.032 265.65L843.178 269.536ZM845.994 259.808H850.994V254.675L845.862 254.81L845.994 259.808ZM839.338 241.512C844.809 241.512 848.218 242.643 850.257 244.199L856.323 236.249C851.877 232.856 845.984 231.512 839.338 231.512V241.512ZM850.374 244.286C852.09 245.518 853.282 247.521 853.282 251.36H863.282C863.282 245.129 861.146 239.709 856.206 236.162L850.374 244.286ZM853.282 251.36V279.264H863.282V251.36H853.282ZM858.282 274.264H849.578V284.264H858.282V274.264ZM854.168 277.282L851.736 271.65L842.556 275.614L844.988 281.246L854.168 277.282ZM847.146 268.632H846.89V278.632H847.146V268.632ZM843.141 270.324C842.057 271.552 840.981 272.549 839.922 273.344L845.922 281.344C847.593 280.091 849.163 278.613 850.639 276.94L843.141 270.324ZM840.089 273.224C839.285 273.777 838.287 274.228 837.028 274.528L839.344 284.256C841.669 283.703 843.828 282.789 845.755 281.464L840.089 273.224ZM836.973 274.541C835.798 274.835 834.105 275.032 831.786 275.032V285.032C834.587 285.032 837.16 284.802 839.399 284.243L836.973 274.541ZM831.786 275.032C829.741 275.032 828.05 274.672 826.632 274.047L822.604 283.201C825.453 284.454 828.541 285.032 831.786 285.032V275.032ZM826.632 274.047C825.392 273.502 824.439 272.695 823.686 271.541L815.31 277.003C817.117 279.774 819.577 281.869 822.604 283.201L826.632 274.047ZM823.769 271.672C823.186 270.715 822.706 269.175 822.706 266.72H812.706C812.706 270.409 813.421 273.904 815.227 276.872L823.769 271.672ZM822.706 266.72C822.706 263.74 823.699 262.162 825.396 261.073L820 252.655C815.041 255.833 812.706 260.826 812.706 266.72H822.706ZM825.348 261.104C827.643 259.67 831.701 258.568 838.183 258.406L837.933 248.41C830.761 248.589 824.579 249.792 820.048 252.624L825.348 261.104ZM838.219 258.405L846.155 258.149L845.833 248.155L837.897 248.411L838.219 258.405ZM850.994 253.152V251.36H840.994V253.152H850.994ZM850.994 251.36C850.994 248.195 850.048 244.872 847.197 242.592L840.951 250.4C840.922 250.378 840.891 250.346 840.867 250.313C840.845 250.282 840.847 250.276 840.863 250.316C840.899 250.406 840.994 250.715 840.994 251.36H850.994ZM847.197 242.592C844.762 240.644 841.78 239.96 838.826 239.96V249.96C840.309 249.96 840.826 250.3 840.951 250.4L847.197 242.592ZM838.826 239.96C836.22 239.96 833.633 240.326 831.078 241.041L833.774 250.671C835.486 250.192 837.166 249.96 838.826 249.96V239.96ZM831.259 240.994C828.818 241.58 826.402 242.404 824.012 243.455L828.04 252.609C829.917 251.783 831.767 251.156 833.593 250.718L831.259 240.994ZM830.454 245.709L826.358 237.901L817.502 242.547L821.598 250.355L830.454 245.709ZM823.975 244.787C826.115 243.827 828.529 243.029 831.236 242.41L829.008 232.662C825.742 233.408 822.694 234.402 819.885 235.661L823.975 244.787ZM831.236 242.41C833.846 241.814 836.544 241.512 839.338 241.512V231.512C835.817 231.512 832.371 231.893 829.008 232.662L831.236 242.41ZM840.917 254.941C836.772 255.117 832.6 255.813 829.74 258.037L835.88 265.931C835.874 265.935 835.959 265.869 836.191 265.768C836.422 265.667 836.762 265.548 837.237 265.431C838.202 265.194 839.547 265.008 841.343 264.931L840.917 254.941ZM829.74 258.037C826.914 260.235 825.506 263.351 825.506 266.848H835.506C835.506 266.459 835.576 266.289 835.601 266.236C835.622 266.192 835.676 266.089 835.88 265.931L829.74 258.037ZM825.506 266.848C825.506 269.708 826.509 272.722 829.324 274.671L835.016 266.449C835.099 266.507 835.197 266.591 835.29 266.703C835.382 266.815 835.446 266.924 835.485 267.011C835.56 267.179 835.506 267.173 835.506 266.848H825.506ZM829.324 274.671C831.504 276.18 834.042 276.712 836.522 276.712V266.712C835.418 266.712 835.054 266.476 835.016 266.449L829.324 274.671ZM836.522 276.712C840.135 276.712 843.513 275.698 846.324 273.422L840.032 265.65C839.259 266.275 838.2 266.712 836.522 266.712V276.712ZM846.235 273.492C849.533 270.944 850.994 267.278 850.994 263.264H840.994C840.994 264.711 840.577 265.227 840.121 265.58L846.235 273.492ZM850.994 263.264V259.808H840.994V263.264H850.994ZM845.862 254.81L840.998 254.938L841.262 264.934L846.126 264.806L845.862 254.81ZM908.66 242.016L904.87 245.277L904.87 245.277L908.66 242.016ZM911.092 270.176L906.573 268.036L906.55 268.085L906.528 268.134L911.092 270.176ZM904.948 277.6L907.623 281.824L907.641 281.813L907.659 281.801L904.948 277.6ZM890.228 279.264L888.647 284.007L888.685 284.02L888.722 284.032L890.228 279.264ZM886.26 277.344L883.211 281.307L883.311 281.384L883.414 281.455L886.26 277.344ZM883.444 274.656L887.314 271.49L885.813 269.656H883.444V274.656ZM882.676 274.656V269.656H876.272L877.825 275.869L882.676 274.656ZM883.188 277.728L878.205 278.143L878.222 278.348L878.256 278.55L883.188 277.728ZM883.444 297.696V302.696H888.444V297.696H883.444ZM871.028 297.696H866.028V302.696H871.028V297.696ZM871.028 237.28V232.28H866.028V237.28H871.028ZM881.012 237.28L885.766 235.732L884.642 232.28H881.012V237.28ZM882.804 242.784L878.05 244.332L879.174 247.784H882.804V242.784ZM883.444 242.784V247.784H886.064L887.555 245.63L883.444 242.784ZM886.26 239.712L883.171 235.78L883.1 235.836L883.03 235.895L886.26 239.712ZM890.484 237.408L888.832 232.689L888.794 232.702L888.755 232.716L890.484 237.408ZM887.156 247.008L889.728 251.295L889.831 251.234L889.929 251.168L887.156 247.008ZM884.34 250.72L889.032 252.449L889.046 252.41L889.059 252.372L884.34 250.72ZM884.212 265.056L889.036 263.74L889.036 263.74L884.212 265.056ZM886.9 269.28L883.943 273.312L884.005 273.357L884.067 273.4L886.9 269.28ZM897.14 269.28L900.229 273.212L900.229 273.212L897.14 269.28ZM899.828 265.056L904.593 266.572L904.602 266.542L904.611 266.512L899.828 265.056ZM896.244 241.512C900.003 241.512 902.723 242.782 904.87 245.277L912.45 238.755C908.282 233.911 902.725 231.512 896.244 231.512V241.512ZM904.87 245.277C906.946 247.69 908.396 251.742 908.396 258.272H918.396C918.396 250.466 916.688 243.68 912.45 238.755L904.87 245.277ZM908.396 258.272C908.396 262.444 907.711 265.635 906.573 268.036L915.611 272.316C917.546 268.232 918.396 263.487 918.396 258.272H908.396ZM906.528 268.134C905.42 270.61 903.967 272.282 902.237 273.399L907.659 281.801C911.219 279.504 913.862 276.228 915.656 272.218L906.528 268.134ZM902.273 273.376C900.611 274.428 898.577 275.032 895.988 275.032V285.032C900.225 285.032 904.165 284.014 907.623 281.824L902.273 273.376ZM895.988 275.032C894.134 275.032 892.745 274.816 891.734 274.496L888.722 284.032C890.953 284.736 893.405 285.032 895.988 285.032V275.032ZM891.809 274.521C890.636 274.129 889.757 273.684 889.106 273.233L883.414 281.455C884.981 282.54 886.748 283.375 888.647 284.007L891.809 274.521ZM889.309 273.381C888.457 272.726 887.806 272.091 887.314 271.49L879.574 277.822C880.618 279.098 881.844 280.255 883.211 281.307L889.309 273.381ZM883.444 269.656H882.676V279.656H883.444V269.656ZM877.825 275.869C878.018 276.638 878.143 277.395 878.205 278.143L888.171 277.313C888.062 276.013 887.846 274.722 887.527 273.443L877.825 275.869ZM878.256 278.55C878.382 279.306 878.444 280.055 878.444 280.8H888.444C888.444 279.497 888.335 278.198 888.12 276.906L878.256 278.55ZM878.444 280.8V297.696H888.444V280.8H878.444ZM883.444 292.696H871.028V302.696H883.444V292.696ZM876.028 297.696V237.28H866.028V297.696H876.028ZM871.028 242.28H881.012V232.28H871.028V242.28ZM876.258 238.828L878.05 244.332L887.558 241.236L885.766 235.732L876.258 238.828ZM882.804 247.784H883.444V237.784H882.804V247.784ZM887.555 245.63C888.055 244.908 888.69 244.206 889.49 243.529L883.03 235.895C881.612 237.096 880.369 238.441 879.333 239.938L887.555 245.63ZM889.349 243.644C890.081 243.069 891.015 242.541 892.213 242.1L888.755 232.716C886.71 233.47 884.829 234.478 883.171 235.78L889.349 243.644ZM892.136 242.127C893.226 241.746 894.574 241.512 896.244 241.512V231.512C893.647 231.512 891.156 231.876 888.832 232.689L892.136 242.127ZM892.276 240.728C889.525 240.728 886.745 241.273 884.383 242.848L889.929 251.168C890.127 251.036 890.761 250.728 892.276 250.728V240.728ZM884.584 242.721C882.102 244.209 880.519 246.501 879.621 249.068L889.059 252.372C889.356 251.525 889.65 251.343 889.728 251.295L884.584 242.721ZM879.648 248.991C878.779 251.35 878.444 254.033 878.444 256.864H888.444C888.444 254.746 888.706 253.333 889.032 252.449L879.648 248.991ZM878.444 256.864V258.144H888.444V256.864H878.444ZM878.444 258.144C878.444 261.155 878.723 263.932 879.388 266.372L889.036 263.74C888.677 262.425 888.444 260.594 888.444 258.144H878.444ZM879.388 266.372C880.128 269.086 881.56 271.565 883.943 273.312L889.857 265.248C889.68 265.118 889.32 264.781 889.036 263.74L879.388 266.372ZM884.067 273.4C886.534 275.096 889.471 275.688 892.404 275.688V265.688C890.729 265.688 889.997 265.341 889.733 265.16L884.067 273.4ZM892.404 275.688C895.157 275.688 897.925 275.022 900.229 273.212L894.051 265.348C893.966 265.415 893.576 265.688 892.404 265.688V275.688ZM900.229 273.212C902.415 271.494 903.781 269.123 904.593 266.572L895.063 263.54C894.68 264.743 894.254 265.189 894.051 265.348L900.229 273.212ZM904.611 266.512C905.391 263.951 905.724 261.087 905.724 258.016H895.724C895.724 260.406 895.46 262.236 895.045 263.6L904.611 266.512ZM905.724 258.016C905.724 253.522 905.004 249.278 902.836 246.026L894.516 251.573C895.079 252.418 895.724 254.318 895.724 258.016H905.724ZM902.836 246.026C900.367 242.323 896.504 240.728 892.276 240.728V250.728C893.851 250.728 894.254 251.181 894.516 251.573L902.836 246.026Z" fill="black" mask="url(#path-18-outside-1_1229_356)"/>
</g>
<defs>
<clipPath id="clip0_1229_356">
<rect width="918" height="400" fill="white"/>
</clipPath>
</defs>
</svg>
